<?xml version="1.0" encoding="UTF-8"?>
<svg id="Camada_2" data-name="Camada 2" xmlns="http://www.w3.org/2000/svg" viewBox="0 0 677.13 553.61">
  <defs>
    <style>
      .cls-1 {
        fill: #fff;
      }

      .cls-2 {
        fill: #fa0;
      }

      .cls-3 {
        fill: #f70003;
      }
    </style>
  </defs>
  <g id="Camada_29" data-name="Camada 29">
    <g>
      <path class="cls-3" d="M517.76,11.67c-34.63-15.77-81.43-15.65-136.04.92-70.54,21.4-147,68.03-215.32,131.29-68.31,63.26-120.67,135.93-147.42,204.62-28.24,72.51-24.86,132.88,9.51,170,8.66,9.34,18.93,16.85,30.65,22.47-32.08-20.12-31.54-56.25-25.29-83.32-.87-5.01-1.39-10.3-1.56-15.86-.74-23.87,4.86-51.33,16.66-81.62,25.02-64.24,74.49-132.67,139.3-192.69,64.82-60.02,136.84-104.1,202.81-124.11,24.5-7.43,46.95-11.18,66.99-11.18,5.4,0,10.63.28,15.67.82,22.85,2.47,40.74,10.53,53.17,23.95,6.16,6.66,10.91,14.55,14.21,23.61-1.02-22.46-6.13-50.74-23.34-68.91Z"/>
      <rect class="cls-1" x="157.07" y="141.66" width="276.37" height="276.37"/>
      <polygon points="451.65 157.39 451.65 432.43 176.61 432.43 176.61 418.03 433.44 418.03 433.44 157.39 451.65 157.39"/>
      <path class="cls-2" d="M559.99,205.11c-26.75,68.69-79.1,141.36-147.42,204.62-68.31,63.27-144.78,109.89-215.32,131.29-27.75,8.42-53.48,12.59-76.62,12.59s-44.02-4.23-61.5-12.64c-32.08-20.12-31.54-56.25-25.29-83.32,2.71,15.74,8.82,28.82,18.24,38.99,12.43,13.42,30.32,21.48,53.17,23.95,23.74,2.57,51.56-.92,82.66-10.36,65.97-20.02,138-64.1,202.81-124.11,64.81-60.02,114.28-128.45,139.3-192.69,11.8-30.29,17.4-57.75,16.67-81.62-.36-11.58-2.23-22.02-5.59-31.24-1.02-22.46-6.13-50.74-23.34-68.91,12.58,5.72,23.57,13.54,32.73,23.44,34.37,37.12,37.75,97.49,9.51,170Z"/>
      <g>
        <path class="cls-3" d="M83.81,366.65h36.25v9.72h-20.16v5.41h14.5v9.23h-14.5v14.75h-16.1v-39.11Z"/>
        <path class="cls-3" d="M126.22,366.65h19.72l11.31,23.48,11.02-23.48h19.65v39.11h-16.02v-19.5l-7.9,19.5h-13.78l-7.9-19.5v19.5h-16.1v-39.11Z"/>
      </g>
      <g>
        <path class="cls-3" d="M501.98,173.22c10.66,0,16.1,5.4,16.1,12.28,0,4.92-3.11,9.11-9.16,10.85l9.22,14.35h-14.61l-7.96-13.45h-.06v13.45h-13.29v-37.48h19.75ZM500.78,183.06h-5.27v6.35h5.27c2.51,0,3.83-.95,3.83-3.18,0-1.91-1.32-3.18-3.83-3.18Z"/>
        <path class="cls-3" d="M550.11,205.03h-14.13l-2.09,5.66h-13.95l15.5-37.48h15.32l15.44,37.48h-14.01l-2.1-5.66ZM550.77,157.39v8.68l-15.5,4.98v-7.83l15.5-5.82ZM543.05,185.76l-3.83,10.43h7.66l-3.83-10.43Z"/>
        <path class="cls-3" d="M609.49,191.85c0,10.69-8.5,18.85-22.03,18.85h-17.66v-37.48h17.66c13.53,0,22.03,7.84,22.03,18.64ZM586.26,200.22c5.87,0,9.76-2.91,9.76-8.36s-3.89-8.36-9.76-8.36h-3.17v16.73h3.17Z"/>
        <path class="cls-3" d="M614.88,173.22h13.29v37.48h-13.29v-37.48Z"/>
        <path class="cls-3" d="M655.4,211.07c-12.03,0-21.85-7.99-21.85-19.27s9.82-19.22,21.85-19.22,21.73,7.94,21.73,19.22-9.76,19.27-21.73,19.27ZM655.4,200.11c5.33,0,8.26-3.34,8.26-8.31s-2.93-8.36-8.26-8.36-8.32,3.28-8.32,8.36,2.87,8.31,8.32,8.31Z"/>
      </g>
      <path d="M415.85,328.66c0,25.28-20.49,45.77-45.77,45.77-15.66,0-29.47-7.86-37.71-19.86,19.34-2.32,41.74-18.78,41.74-38.74,0-2.18-.86-5.32-1.21-7.41-.86-2.16-1.6-4.16-2.39-6.47-1.3-3.81-2.18-6.44-4.35-10.22-1.11-1.94-2.55-2.86-3.42-4.88-5.21-4.71-11.7-8.03-18.88-9.37h0c-.55-.38-1.1-.73-1.66-1.07,18.91-2.71,33.44-18.97,33.44-38.62,0-12.35-5.74-23.37-14.7-30.52-.58-1.51-1.25-2.97-1.99-4.39,2.85-.56,5.79-.85,8.8-.85,25.28,0,45.76,20.49,45.76,45.76,0,15.56-7.77,29.3-19.63,37.57-1.15.8-2.33,1.55-3.56,2.24,15.13,7.47,25.53,23.04,25.53,41.05Z"/>
      <path d="M332.11,334.05c0,7.49,1.84,14.55,5.09,20.75-.7.04-1.41.05-2.12.05-21.55,0-39.02-17.47-39.02-39.02s17.47-39.03,39.02-39.03c12.06,0,22.84,5.47,29.99,14.06-19,5.17-32.96,22.54-32.96,43.18Z"/>
      <path d="M327.57,248.75c0,10.59,3.68,20.32,9.83,27.98-.77.04-1.54.07-2.32.07-21.55,0-39.02-17.47-39.02-39.02s17.47-39.03,39.02-39.03c8.62,0,16.6,2.8,23.05,7.54-17.75,5.94-30.56,22.7-30.56,42.46Z"/>
      <path class="cls-1" d="M335.08,361.15c-24.99,0-45.33-20.33-45.33-45.33s20.33-45.33,45.33-45.33,45.33,20.33,45.33,45.33-20.33,45.33-45.33,45.33ZM335.08,283.11c-18.04,0-32.72,14.68-32.72,32.72s14.68,32.72,32.72,32.72,32.72-14.68,32.72-32.72-14.68-32.72-32.72-32.72Z"/>
      <path class="cls-1" d="M335.08,283.11c-24.99,0-45.33-20.33-45.33-45.33s20.33-45.33,45.33-45.33,45.33,20.33,45.33,45.33-20.33,45.33-45.33,45.33ZM335.08,205.06c-18.04,0-32.72,14.68-32.72,32.72s14.68,32.72,32.72,32.72,32.72-14.68,32.72-32.72-14.68-32.72-32.72-32.72Z"/>
      <path d="M289.48,328.66c0,25.28-20.49,45.77-45.77,45.77-15.66,0-29.47-7.86-37.71-19.86,19.34-2.32,41.74-18.78,41.74-38.74,0-2.18-.86-5.31-1.21-7.4.16-1.52-6.5-2.07-6.5-3.63,0-4.03-.52-7.93-1.5-11.65-.86-3.29-2.09-6.43-3.62-9.39,2.85-.56,5.79-.85,8.8-.85,5.2,0,10.2.86,14.86,2.46,17.98,6.17,30.91,23.22,30.91,43.29Z"/>
      <path d="M287.14,247.79c0,15.56-7.77,29.3-19.63,37.57-5.83,4.06-12.65,6.81-20.04,7.79-1.7.23-3.43.36-5.19.39-5.74-8.23-14.56-14.14-24.79-16.06h0c-.55-.38-1.1-.73-1.66-1.07,18.91-2.71,33.45-18.97,33.45-38.63,0-12.35-5.74-23.37-14.7-30.52-.58-1.51-1.25-2.97-1.99-4.39,2.85-.56,5.79-.85,8.8-.85,25.28,0,45.76,20.49,45.76,45.76Z"/>
      <path d="M205.75,334.05c0,7.49,1.84,14.55,5.09,20.75-.7.04-1.41.05-2.12.05-21.55,0-39.02-17.47-39.02-39.02s17.47-39.03,39.02-39.03c12.06,0,22.84,5.47,29.99,14.06-19,5.17-32.96,22.54-32.96,43.18Z"/>
      <path d="M201.21,248.75c0,10.59,3.68,20.32,9.83,27.98-.77.04-1.54.07-2.32.07-21.55,0-39.02-17.47-39.02-39.02s17.47-39.03,39.02-39.03c8.62,0,16.6,2.8,23.05,7.54-17.75,5.94-30.56,22.7-30.56,42.46Z"/>
      <path class="cls-1" d="M208.72,361.15c-24.99,0-45.33-20.33-45.33-45.33s20.33-45.33,45.33-45.33,45.33,20.33,45.33,45.33-20.33,45.33-45.33,45.33ZM208.72,283.11c-18.04,0-32.72,14.68-32.72,32.72s14.68,32.72,32.72,32.72,32.72-14.68,32.72-32.72-14.68-32.72-32.72-32.72Z"/>
      <path class="cls-1" d="M208.72,283.11c-24.99,0-45.33-20.33-45.33-45.33s20.33-45.33,45.33-45.33,45.33,20.33,45.33,45.33-20.33,45.33-45.33,45.33ZM208.72,205.06c-18.04,0-32.72,14.68-32.72,32.72s14.68,32.72,32.72,32.72,32.72-14.68,32.72-32.72-14.68-32.72-32.72-32.72Z"/>
    </g>
  </g>
</svg>