<?xml version="1.0" encoding="UTF-8"?>
<svg id="Camada_2" data-name="Camada 2" xmlns="http://www.w3.org/2000/svg" viewBox="0 0 605.43 611.77">
  <defs>
    <style>
      .cls-1 {
        fill-rule: evenodd;
      }

      .cls-1, .cls-2 {
        fill: #038ce4;
      }
    </style>
  </defs>
  <g id="Camada_35" data-name="Camada 35">
    <g>
      <path class="cls-2" d="M289.78,327.95c9.32-28.92,29.23-54.03,55.9-72.03-26.92-21.38-43.67-51.4-43.68-84.64,0-64.92,63.87-117.55,142.66-117.55,78.79,0,142.67,52.63,142.67,117.55,0,33.24-16.76,63.26-43.68,84.64,37.6,25.38,61.77,64.88,61.77,109.25,0,76.57-71.97,138.65-160.75,138.65-52.47,0-99.07-21.68-128.41-55.23,0,0-52.26-51.27-26.48-120.64ZM444.69,296.85c-32.18,0-58.27,22.49-58.27,50.23s26.09,50.23,58.27,50.23,58.27-22.49,58.27-50.23-26.09-50.23-58.27-50.23ZM444.67,144.15c-25.52,0-46.21,17.54-46.21,39.18s20.69,39.18,46.21,39.18c25.52,0,46.22-17.55,46.22-39.18s-20.69-39.18-46.22-39.18Z"/>
      <path class="cls-2" d="M7.15,374.16c9.32-28.92,29.23-54.03,55.9-72.03-26.92-21.38-43.67-51.4-43.68-84.64,0-64.92,63.87-117.55,142.66-117.55,78.79,0,142.67,52.63,142.67,117.55,0,33.24-16.76,63.26-43.68,84.64,37.6,25.38,61.77,64.88,61.77,109.25,0,76.57-71.97,138.65-160.75,138.65-52.47,0-99.07-21.68-128.41-55.23,0,0-52.26-51.27-26.48-120.64ZM162.05,343.05c-32.18,0-58.27,22.49-58.27,50.23s26.09,50.23,58.27,50.23,58.27-22.49,58.27-50.23-26.09-50.23-58.27-50.23ZM162.03,190.36c-25.52,0-46.21,17.54-46.21,39.18s20.69,39.18,46.21,39.18c25.52,0,46.22-17.55,46.22-39.18s-20.69-39.18-46.22-39.18Z"/>
      <path class="cls-1" d="M64.63,91.56C64.63,40.99,105.42,0,155.73,0h294.35c50.32,0,91.11,40.99,91.11,91.56v428.64c0,50.57-40.79,91.57-91.11,91.57H155.73c-50.32,0-91.11-41-91.11-91.57V91.56ZM155.73,22.14c-38.15,0-69.08,31.08-69.08,69.43v428.64c0,38.34,30.93,69.43,69.08,69.43h294.35c38.15,0,69.08-31.09,69.08-69.43V91.56c0-38.34-30.93-69.43-69.08-69.43H155.73Z"/>
      <g>
        <path class="cls-2" d="M391.6,545.45v15.34h-10.06v-42.12h32.85v7.82h-22.79v11.13h20.12v7.82h-20.12Z"/>
        <path class="cls-2" d="M421.2,518.67v42.12h9.44v-24.73l12.73,20.28h4.53l12.8-20.83.05,25.28h9.44l-.12-42.12h-8.26l-16.01,26.15-16.28-26.15h-8.32Z"/>
      </g>
    </g>
  </g>
</svg>