<?xml version="1.0" encoding="UTF-8"?>
<svg id="Camada_2" data-name="Camada 2" xmlns="http://www.w3.org/2000/svg" viewBox="0 0 621.9 613.97">
  <defs>
    <style>
      .cls-1 {
        fill: #ec4b36;
      }

      .cls-2 {
        fill: #fff;
      }

      .cls-3 {
        fill: #3495d2;
      }

      .cls-4 {
        fill: #f9e926;
      }
    </style>
  </defs>
  <g id="FM">
    <g>
      <path class="cls-1" d="M79.9,411.96h465.26c4.97,0,9,4.03,9,9v151.48c0,22.93-18.61,41.54-41.54,41.54H112.44c-22.93,0-41.54-18.61-41.54-41.54v-151.48c0-4.97,4.03-9,9-9Z"/>
      <path class="cls-3" d="M71.22,35.31C71.41,15.76,87.31,0,106.87,0h411.63c19.69,0,35.65,15.96,35.65,35.65v341.95c0,17.36-12.51,32.2-29.63,35.14l-415.52,71.23c-21.91,3.76-41.88-13.24-41.67-35.47l3.88-413.18Z"/>
      <path class="cls-4" d="M459.49,71.3c78.71,0,142.52,50.4,142.52,112.56,0,33.12-18.11,62.89-46.94,83.48,40.5,24.1,66.82,63.11,66.82,107.14,0,73.19-72.71,132.53-162.41,132.53s-162.41-59.34-162.41-132.53c0-44.03,26.32-83.04,66.82-107.14-28.82-20.6-46.93-50.37-46.93-83.48,0-62.17,63.81-112.56,142.52-112.56ZM459.49,310.95c-29.29,0-53.03,22.76-53.03,50.83s23.74,50.84,53.03,50.84,53.03-22.76,53.03-50.84-23.74-50.83-53.03-50.83ZM459.49,158.44c-27.46,0-49.72,18.7-49.72,41.76s22.26,41.76,49.72,41.76,49.72-18.69,49.72-41.76-22.26-41.76-49.72-41.76Z"/>
      <path class="cls-4" d="M162.41,126.76c78.71,0,142.52,50.4,142.52,112.56,0,33.12-18.11,62.89-46.93,83.48,40.5,24.1,66.82,63.11,66.82,107.15,0,73.19-72.71,132.53-162.41,132.53S0,503.14,0,429.95c0-44.03,26.32-83.04,66.82-107.15-28.82-20.6-46.93-50.37-46.93-83.48,0-62.17,63.81-112.56,142.52-112.56ZM162.41,366.4c-29.29,0-53.03,22.76-53.03,50.83s23.74,50.84,53.03,50.84,53.03-22.76,53.03-50.84-23.74-50.83-53.03-50.83ZM162.41,213.9c-27.46,0-49.72,18.7-49.72,41.76s22.26,41.76,49.72,41.76,49.72-18.69,49.72-41.76-22.26-41.76-49.72-41.76Z"/>
      <path class="cls-2" d="M518.91,582.28c-2.19,0-3.96-1.77-3.96-3.96v-33.99l-10.53,16.46c-.71,1.11-1.93,1.79-3.24,1.83-1.32-.01-2.56-.6-3.33-1.67l-12.61-17.75v35.12c0,2.19-1.77,3.96-3.96,3.96s-3.96-1.77-3.96-3.96v-47.53c0-1.73,1.11-3.25,2.76-3.78,1.63-.51,3.43.07,4.43,1.48l16.4,23.08,14.66-22.92c.95-1.48,2.77-2.16,4.45-1.67,1.69.5,2.85,2.04,2.85,3.8v47.53c0,2.19-1.77,3.96-3.96,3.96ZM435.72,582.28c-2.19,0-3.96-1.77-3.96-3.96v-47.53c0-2.19,1.77-3.96,3.96-3.96h31.69c2.19,0,3.96,1.77,3.96,3.96s-1.77,3.96-3.96,3.96h-27.73v15.84h11.88c2.19,0,3.96,1.77,3.96,3.96s-1.77,3.96-3.96,3.96h-11.88v19.81c0,2.19-1.77,3.96-3.96,3.96Z"/>
    </g>
  </g>
</svg>