<?xml version="1.0" encoding="UTF-8"?>
<svg id="Camada_2" data-name="Camada 2" xmlns="http://www.w3.org/2000/svg" viewBox="0 0 745.04 604.47">
  <defs>
    <style>
      .cls-1 {
        fill: #fff;
      }

      .cls-2 {
        fill: #3495d2;
      }

      .cls-3 {
        fill: #f9e926;
      }

      .cls-4 {
        fill: #c12526;
      }
    </style>
  </defs>
  <g id="Camada_14" data-name="Camada 14">
    <g>
      <rect class="cls-4" x="80.83" y="499.04" width="590.41" height="105.43"/>
      <rect class="cls-2" x="80.83" width="590.41" height="499.04"/>
      <path d="M702.87,172.2c0-60.17-67.66-108.95-151.12-108.95s-151.12,48.78-151.12,108.95c0,32.05,19.2,60.87,49.76,80.8-42.94,23.33-70.85,61.08-70.85,103.7,0,70.84,77.1,128.27,172.2,128.27s172.2-57.43,172.2-128.27c0-42.62-27.91-80.37-70.85-103.7,30.56-19.94,49.76-48.75,49.76-80.8ZM586.9,344.41c0-12.97-13-28.11-35.14-28.11s-35.14,15.14-35.14,28.11,13,28.11,35.14,28.11v21.09c-31.06,0-56.23-22.03-56.23-49.2s25.17-49.2,56.23-49.2,56.23,22.03,56.23,49.2-25.17,49.2-56.23,49.2v-21.09c22.14,0,35.14-15.14,35.14-28.11ZM583.38,188.02c0-3.23-1.66-7.61-7.18-11.84-5.55-4.25-14.12-7.49-24.45-7.49s-18.9,3.23-24.45,7.49c-5.53,4.24-7.18,8.61-7.18,11.84s1.66,7.61,7.18,11.84c5.55,4.25,14.12,7.49,24.45,7.49v21.09c-29.11,0-52.72-18.09-52.72-40.42s23.6-40.42,52.72-40.42,52.72,18.09,52.72,40.42-23.6,40.42-52.72,40.42v-21.09c10.33,0,18.9-3.23,24.45-7.49,5.53-4.24,7.18-8.61,7.18-11.84ZM723.96,172.2c0,30.7-13.73,57.81-35.12,79,33.73,26.17,56.2,62.98,56.2,105.51s-23.78,81.43-58.93,107.61c-35.15,26.18-82.72,41.75-134.36,41.75s-99.21-15.57-134.36-41.75c-35.15-26.18-58.93-64-58.93-107.61s22.47-79.33,56.19-105.51c-21.38-21.19-35.11-48.3-35.11-79,0-38.57,21.73-71.58,53.02-94.14,31.32-22.58,73.52-35.89,119.19-35.89s87.87,13.31,119.19,35.89c31.29,22.56,53.02,55.56,53.02,94.14Z"/>
      <path d="M344.41,238.98c0-60.17-67.66-108.95-151.12-108.95S42.17,178.81,42.17,238.98c0,32.05,19.2,60.87,49.76,80.8-42.94,23.33-70.85,61.08-70.85,103.7,0,70.84,77.1,128.27,172.2,128.27s172.2-57.43,172.2-128.27c0-42.62-27.91-80.37-70.85-103.7,30.56-19.94,49.76-48.75,49.76-80.8ZM228.43,411.18c0-12.97-13-28.11-35.14-28.11s-35.14,15.14-35.14,28.11,13,28.11,35.14,28.11v21.09c-31.05,0-56.23-22.03-56.23-49.2s25.17-49.2,56.23-49.2,56.23,22.03,56.23,49.2-25.17,49.2-56.23,49.2v-21.09c22.14,0,35.14-15.14,35.14-28.11ZM224.92,254.79c0-3.23-1.66-7.61-7.18-11.84-5.55-4.25-14.12-7.49-24.45-7.49s-18.9,3.23-24.45,7.49c-5.53,4.24-7.18,8.61-7.18,11.84s1.66,7.61,7.18,11.84c5.55,4.25,14.12,7.49,24.45,7.49v21.09c-29.11,0-52.72-18.09-52.72-40.42s23.6-40.42,52.72-40.42,52.72,18.09,52.72,40.42-23.6,40.42-52.72,40.42v-21.09c10.33,0,18.9-3.23,24.45-7.49,5.53-4.24,7.18-8.61,7.18-11.84ZM365.49,238.98c0,30.7-13.73,57.81-35.12,79,33.73,26.17,56.2,62.98,56.2,105.51s-23.78,81.43-58.93,107.61c-35.15,26.18-82.72,41.75-134.36,41.75s-99.21-15.57-134.36-41.75C23.78,504.91,0,467.09,0,423.48s22.47-79.33,56.2-105.51c-21.38-21.19-35.11-48.3-35.11-79,0-38.57,21.73-71.58,53.02-94.14,31.32-22.58,73.53-35.89,119.19-35.89s87.87,13.31,119.19,35.89c31.29,22.56,53.02,55.56,53.02,94.14Z"/>
      <path class="cls-3" d="M193.29,130.03c83.46,0,151.12,48.78,151.12,108.95,0,32.05-19.2,60.87-49.76,80.8,42.94,23.33,70.85,61.08,70.85,103.7,0,70.84-77.1,128.27-172.2,128.27S21.09,494.32,21.09,423.48c0-42.62,27.91-80.37,70.85-103.7-30.56-19.94-49.76-48.75-49.76-80.8,0-60.17,67.66-108.95,151.12-108.95ZM193.29,361.98c-31.05,0-56.23,22.03-56.23,49.2s25.17,49.2,56.23,49.2,56.23-22.03,56.23-49.2-25.17-49.2-56.23-49.2ZM193.29,214.38c-29.11,0-52.72,18.09-52.72,40.42s23.6,40.42,52.72,40.42,52.72-18.09,52.72-40.42-23.6-40.42-52.72-40.42Z"/>
      <path class="cls-3" d="M551.75,63.26c83.46,0,151.12,48.78,151.12,108.95,0,32.05-19.2,60.87-49.76,80.8,42.94,23.33,70.85,61.08,70.85,103.7,0,70.84-77.1,128.27-172.2,128.27s-172.2-57.43-172.2-128.27c0-42.62,27.91-80.37,70.85-103.7-30.56-19.94-49.76-48.75-49.76-80.8,0-60.17,67.66-108.95,151.12-108.95ZM551.75,295.21c-31.06,0-56.23,22.03-56.23,49.2s25.17,49.2,56.23,49.2,56.23-22.03,56.23-49.2-25.17-49.2-56.23-49.2ZM551.75,147.6c-29.11,0-52.72,18.09-52.72,40.42s23.6,40.42,52.72,40.42,52.72-18.09,52.72-40.42-23.6-40.42-52.72-40.42Z"/>
      <path class="cls-1" d="M544.73,513.1v17.57h-50.96v14.94h29.87v17.57h-29.87v23.72h-17.57v-73.8h68.53ZM611.5,552.65l30.55-33.33h15.14v67.58h-17.57v-39.61l-21.09,24.25h-12.3l-24.6-25.55v40.9h-17.57v-70.67h15.51l31.93,36.42Z"/>
      <path class="cls-1" d="M159.56,48.36c0-1.82-1.49-3.29-3.32-3.29h-26.59v14.81h26.59c1.84,0,3.32-1.47,3.32-3.29v-8.23ZM211.79,71.33v.03s.03.03.03.03l10.29,16.38h-7.54l-7.52-11.42h-18.6l-7.28,11.42h-7.81l10.41-16.43,14.01-22.7,14.01,22.7ZM259.27,63.17c0-3.64-2.98-6.58-6.65-6.58h-18.28v24.69h18.28c3.67,0,6.65-2.95,6.65-6.58v-11.52ZM284.2,50v37.86h-6.65v-37.86h6.65ZM330.73,59.88c0-1.82-1.49-3.29-3.32-3.29h-18.28c-1.84,0-3.32,1.47-3.32,3.29v18.11c0,1.82,1.49,3.29,3.32,3.29h18.28c1.84,0,3.32-1.47,3.32-3.29v-18.11ZM192.54,69.75h10.49l-5.25-8.5-5.25,8.5ZM203.81,35.45l-8.31,11.52-5.41-3.83,8.31-11.52,5.41,3.83ZM265.92,74.69c0,7.27-5.95,13.17-13.29,13.17h-24.93v-37.86h24.93c7.34,0,13.29,5.9,13.29,13.17v11.52ZM337.38,77.98c0,5.45-4.46,9.88-9.97,9.88h-18.28c-5.51,0-9.97-4.42-9.97-9.88v-18.11c0-5.45,4.46-9.88,9.97-9.88h18.28c5.51,0,9.97,4.42,9.97,9.88v18.11ZM166.21,56.59c0,5.45-4.46,9.88-9.97,9.88h-3.33l15.87,21.29h-8.08l-16.1-21.29h-14.96v20.94h-6.65v-48.93h33.24c5.51,0,9.97,4.42,9.97,9.88v8.23Z"/>
    </g>
  </g>
</svg>