<?xml version="1.0" encoding="UTF-8"?>
<svg id="Camada_2" data-name="Camada 2" xmlns="http://www.w3.org/2000/svg" xmlns:xlink="http://www.w3.org/1999/xlink" viewBox="0 0 624.52 528.26">
  <defs>
    <style>
      .cls-1 {
        stroke: #000;
        stroke-miterlimit: 10;
        stroke-width: 3px;
      }

      .cls-1, .cls-2 {
        fill: #fff;
      }

      .cls-3 {
        fill: url(#Gradiente_sem_nome_17);
      }
    </style>
    <radialGradient id="Gradiente_sem_nome_17" data-name="Gradiente sem nome 17" cx="314.48" cy="264.13" fx="314.48" fy="264.13" r="264.13" gradientUnits="userSpaceOnUse">
      <stop offset="0" stop-color="#ffb600"/>
      <stop offset="1" stop-color="#f39500"/>
    </radialGradient>
  </defs>
  <g id="Camada_21" data-name="Camada 21">
    <g>
      <circle class="cls-3" cx="314.48" cy="264.13" r="264.13"/>
      <rect class="cls-2" y="221.09" width="624.52" height="86.09"/>
      <g>
        <path d="M63.6,241.33c14.24,0,21.52,6.22,21.52,14.15,0,5.67-4.16,10.49-12.24,12.5l12.32,16.52h-19.52l-10.64-15.49h-.08v15.49h-17.76v-43.17h26.4ZM62,252.67h-7.04v7.32h7.04c3.36,0,5.12-1.1,5.12-3.66,0-2.2-1.76-3.66-5.12-3.66Z"/>
        <path d="M200,277.98h-18.88l-2.8,6.52h-18.64l20.72-43.17h20.48l20.64,43.17h-18.72l-2.8-6.52ZM200.88,223.1v10l-20.72,5.73v-9.02l20.72-6.71ZM190.56,255.78l-5.12,12.01h10.24l-5.12-12.01Z"/>
        <path d="M351.44,262.79c0,12.32-11.36,21.71-29.44,21.71h-23.6v-43.17h23.6c18.08,0,29.44,9.02,29.44,21.46ZM320.4,272.43c7.84,0,13.04-3.35,13.04-9.63s-5.2-9.63-13.04-9.63h-4.24v19.27h4.24Z"/>
        <path d="M430.72,241.33h17.76v43.17h-17.76v-43.17Z"/>
        <path d="M556.96,284.93c-16.08,0-29.2-9.21-29.2-22.19s13.12-22.13,29.2-22.13,29.04,9.15,29.04,22.13-13.04,22.19-29.04,22.19ZM556.96,272.31c7.12,0,11.04-3.84,11.04-9.57s-3.92-9.63-11.04-9.63-11.12,3.78-11.12,9.63,3.84,9.57,11.12,9.57Z"/>
      </g>
      <g>
        <path d="M324.82,360.14s-33.59,80.69-29.99,129.1l59.97-6.64s-8.4-38.92,7.2-67.4c0,0,37.18,38.92,40.78,53.16,0,0,31.19-5.7,37.18-11.39,6-5.7,6-64.55,6-64.55,0,0,25.19,24.68,32.39,44.62l19.19-12.34s16.79-37.73-39.58-93.98h-45.58s9.6,31.33,0,66.45l-39.58-66.45h-40.78l-7.2,29.43Z"/>
        <g>
          <path class="cls-2" d="M317.15,355.7s-33.59,80.69-29.99,129.1l59.97-6.64s-8.4-38.92,7.2-67.4c0,0,37.18,38.92,40.78,53.16,0,0,31.19-5.7,37.18-11.39,6-5.7,6-64.55,6-64.55,0,0,25.19,24.68,32.39,44.62l19.19-12.34s16.79-37.73-39.58-93.98h-45.58s9.6,31.33,0,66.45l-39.58-66.45h-40.78l-7.2,29.43Z"/>
          <path d="M285.86,486.37l-.11-1.47c-3.52-47.41,28.67-126.31,30.05-129.65l7.44-30.41h42.71l38.25,64.21c7.94-32.96-.74-62.07-.83-62.37l-.56-1.84h48.09l.42.42c29.39,29.32,38.69,53.62,41.33,68.85,2.89,16.7-1.27,26.31-1.45,26.72l-.17.39-21.05,13.53-.61-1.68c-5.7-15.8-23.21-34.94-29.64-41.63-.09,13.53-.84,56.81-6.43,62.12-6.23,5.92-36.62,11.52-37.91,11.76l-1.31.24-.33-1.29c-3.08-12.2-32.37-43.94-39.07-51.08-13.9,27.51-6.22,64.3-6.14,64.67l.33,1.54-63,6.98ZM325.47,327.69l-7,28.55c-.33.8-32.74,79.3-29.98,126.98l56.96-6.31c-1.41-7.63-6.45-41.09,7.64-66.84l.93-1.7,1.34,1.41c1.49,1.55,35.47,37.24,40.75,52.51,9.37-1.78,30.76-6.56,35.21-10.79,4.05-3.84,5.55-41,5.55-63.52v-3.38l2.42,2.37c1.01.99,24.18,23.83,32.09,43.49l17.33-11.15c.7-1.88,3.56-10.81,1.06-24.96-2.6-14.7-11.67-38.16-40.08-66.65h-43.13c1.85,7.27,7.79,35.11-.49,65.4l-.88,3.23-40.88-68.63h-38.86Z"/>
        </g>
      </g>
      <g>
        <path d="M276.54,331.32h-116.75s-20.79,66.76,0,121.19l53.75,26.58s-10.22-40.5,0-53.16c0,0,29.41,1.27,53.4-2.53l-.8-30.38s-48.78.63-55.98-1.9v-24.05l66.37,1.9v-37.65Z"/>
        <g>
          <path class="cls-2" d="M281.65,324.05h-116.75s-20.79,66.76,0,121.19l53.75,26.58s-10.22-40.5,0-53.16c0,0,29.41,1.27,53.4-2.53l-.8-30.38s-48.78.63-55.98-1.9v-24.05l66.37,1.9v-37.65Z"/>
          <path d="M220.78,474.45l-57.02-28.19-.2-.52c-20.73-54.26-.24-121.45-.03-122.12l.31-1h119.22v40.54l-66.37-1.9v21.5c7.97,1.75,41.65,1.73,54.54,1.56l1.4-.02.87,33.03-1.23.2c-21.73,3.44-48.18,2.74-52.94,2.58-8.94,12.58.59,50.97.69,51.36l.75,2.99ZM166.03,444.21l50.55,24.99c-2.17-9.73-8.04-40.29.97-51.44l.45-.56.72.03c.29.01,28.54,1.17,51.88-2.33l-.73-27.72c-8.21.09-48.33.37-55.06-1.99l-.95-.33v-26.52l66.37,1.9v-34.77h-114.26c-2.43,8.48-18.62,69.09.07,118.74Z"/>
        </g>
      </g>
      <g>
        <path d="M475.02,132.64s-.04-.04-.05-.04c-3.97-2.74-6.73-4.19-6.73-4.19,0,0,.35-.22.95-.62,3.16-2.15,13.21-9.56,14.47-18.16,1.16-7.8-5.65-18.97-17.39-28.49-11.03-8.97-26.41-16.49-43.63-18.44-35.53-4.02-57.66,5.36-57.66,28.16,0,9.73,3.42,16.51,7.34,21.11.33.39.67.76.99,1.12,5.02,5.33,10.45,7.27,10.45,7.27-22.68,6.31-31.15,38.65-3.16,64.78,1.8,1.68,3.74,3.33,5.85,4.95,34.86,26.82,114.65,18.11,116.66-12.07,1.46-21.88-17.53-38.11-28.08-45.39ZM439.35,157.09c0,8.38-7.89,15.18-17.61,15.18s-17.61-6.8-17.61-15.18,7.89-15.16,17.61-15.16,17.61,6.79,17.61,15.16ZM410.43,80.58c6.71,0,12.14,4.69,12.14,10.47s-5.44,10.47-12.14,10.47-12.16-4.69-12.16-10.47,5.44-10.47,12.16-10.47Z"/>
        <path d="M421.58,93.05c0,5.78-5.44,10.47-12.14,10.47s-12.16-4.69-12.16-10.47c0-2.61,1.11-5,2.94-6.82.33,5.53,5.64,9.93,12.14,9.93,3.69,0,6.98-1.41,9.2-3.65.01.18.01.36.01.54Z"/>
        <path d="M438.29,160.17c-.63,7.88-8.26,14.1-17.55,14.1s-17.61-6.8-17.61-15.18c0-3.12,1.11-6.03,2.99-8.44-.04.36-.05.72-.05,1.08,0,8.38,7.88,15.18,17.59,15.18,6.1,0,11.48-2.67,14.62-6.73Z"/>
        <path class="cls-1" d="M475.02,132.64s-.04-.04-.05-.04c-1.98-1.8-3.95-3.41-5.78-4.81-5.89-4.48-10.5-6.93-10.5-6.93,0,0,13.4-4.36,15.42-18.77.94-6.68-2.03-14.06-7.84-20.95-10.5-12.47-30.3-23.4-53.18-25.98-35.53-4.02-57.66,5.36-57.66,28.16,0,18.32,12.12,26.25,16.89,28.66,1.17.59,1.89.85,1.89.85-.31.09-.6.17-.9.27-23.43,7.35-30.84,42.97,3.59,69.46,1.18.91,2.42,1.77,3.7,2.6,36.48,23.61,111,14.48,112.96-14.66,1.07-16.13-8.96-29.18-18.53-37.84ZM398.27,91.05c0-2.61,1.11-5,2.94-6.82,2.22-2.24,5.53-3.65,9.21-3.65,6.5,0,11.8,4.41,12.13,9.93.01.18.01.36.01.54,0,5.78-5.44,10.47-12.14,10.47s-12.16-4.69-12.16-10.47ZM421.74,172.27c-9.72,0-17.61-6.8-17.61-15.18,0-3.12,1.11-6.03,2.99-8.44,3.15-4.05,8.52-6.72,14.61-6.72,9.72,0,17.61,6.79,17.61,15.16,0,.36-.01.72-.05,1.08-.63,7.88-8.26,14.1-17.55,14.1Z"/>
      </g>
      <g>
        <path d="M130.59,178.02c2,30.17,81.79,38.89,116.66,12.07,2.11-1.62,4.05-3.26,5.85-4.95,27.99-26.13,19.52-58.47-3.16-64.78,0,0,5.42-1.94,10.45-7.27.32-.36.66-.73.99-1.12,3.92-4.6,7.34-11.39,7.34-21.11,0-22.8-22.13-32.18-57.66-28.16-17.22,1.95-32.6,9.47-43.63,18.44-11.73,9.52-18.54,20.69-17.39,28.49,1.26,8.6,11.31,16.01,14.47,18.16.6.4.95.62.95.62,0,0-2.76,1.45-6.73,4.19-.01,0-.04.01-.05.04-10.55,7.27-29.54,23.5-28.08,45.39ZM211.95,141.93c9.72,0,17.61,6.79,17.61,15.16,0,8.38-7.89,15.18-17.61,15.18s-17.61-6.8-17.61-15.18,7.89-15.16,17.61-15.16ZM235.41,91.05c0,5.78-5.44,10.47-12.16,10.47s-12.14-4.69-12.14-10.47,5.44-10.47,12.14-10.47,12.16,4.69,12.16,10.47Z"/>
        <path d="M212.11,93.05c0,5.78,5.44,10.47,12.14,10.47s12.16-4.69,12.16-10.47c0-2.61-1.11-5-2.94-6.82-.33,5.53-5.64,9.93-12.14,9.93-3.69,0-6.98-1.41-9.2-3.65-.01.18-.01.36-.01.54Z"/>
        <path d="M195.39,160.17c.63,7.88,8.26,14.1,17.55,14.1s17.61-6.8,17.61-15.18c0-3.12-1.11-6.03-2.99-8.44.04.36.05.72.05,1.08,0,8.38-7.88,15.18-17.59,15.18-6.1,0-11.48-2.67-14.62-6.73Z"/>
        <path class="cls-1" d="M140.14,170.48c1.95,29.15,76.47,38.27,112.96,14.66,1.29-.82,2.52-1.68,3.7-2.6,34.43-26.49,27.01-62.11,3.59-69.46-.3-.1-.59-.18-.9-.27,0,0,.72-.26,1.89-.85,4.77-2.4,16.89-10.33,16.89-28.66,0-22.8-22.13-32.18-57.66-28.16-22.87,2.58-42.68,13.52-53.18,25.98-5.81,6.89-8.78,14.26-7.84,20.95,2.02,14.42,15.42,18.77,15.42,18.77,0,0-4.61,2.44-10.5,6.93-1.84,1.4-3.8,3.01-5.78,4.81-.01,0-.04.01-.05.04-9.57,8.66-19.6,21.72-18.53,37.84ZM223.26,101.52c-6.71,0-12.14-4.69-12.14-10.47,0-.18,0-.36.01-.54.33-5.53,5.63-9.93,12.13-9.93,3.69,0,6.99,1.41,9.21,3.65,1.84,1.82,2.94,4.22,2.94,6.82,0,5.78-5.44,10.47-12.16,10.47ZM194.39,158.17c-.04-.36-.05-.72-.05-1.08,0-8.38,7.89-15.16,17.61-15.16,6.09,0,11.46,2.67,14.61,6.72,1.89,2.42,2.99,5.32,2.99,8.44,0,8.38-7.89,15.18-17.61,15.18s-16.92-6.22-17.55-14.1Z"/>
      </g>
    </g>
  </g>
</svg>