<svg width="1676" height="710" viewBox="0 0 1676 710" fill="none" xmlns="http://www.w3.org/2000/svg">
<g clip-path="url(#clip0_553_115)">
<rect width="1676" height="710" rx="24" fill="#038CE4"/>
<path d="M1423.44 982.638C1374.53 916.025 1306.06 748.27 1423.44 610.153C1570.15 437.507 1883.19 505.174 1854.1 235.138C1830.83 19.1096 1807.31 -136.504 1798.45 -187.307" stroke="black" stroke-opacity="0.06" stroke-width="90"/>
<path d="M1041.47 851.098C992.56 784.485 924.092 616.73 1041.47 478.613C1188.18 305.967 1501.22 373.634 1472.13 103.598C1448.86 -112.43 1425.33 -268.044 1416.48 -318.847" stroke="black" stroke-opacity="0.06" stroke-width="90"/>
<path d="M224.402 1093.94C175.496 1027.33 107.028 859.573 224.402 721.456C371.119 548.81 684.16 616.477 655.069 346.441C631.797 130.412 608.271 -25.2009 599.418 -76.0039" stroke="black" stroke-opacity="0.06" stroke-width="90"/>
<path d="M-170.217 944.694C-219.123 878.081 -287.591 710.326 -170.217 572.209C-23.4997 399.563 289.54 467.23 260.45 197.194C237.177 -18.8347 213.652 -174.448 204.798 -225.251" stroke="black" stroke-opacity="0.06" stroke-width="90"/>
<path d="M1250.46 905.485C1201.56 838.872 1133.09 671.117 1250.46 533C1397.18 360.354 1710.22 428.021 1681.13 157.985C1657.86 -58.0437 1634.33 -213.657 1625.48 -264.46" stroke="black" stroke-opacity="0.06" stroke-width="90"/>
<path d="M868.492 773.945C819.586 707.332 751.118 539.577 868.492 401.46C1015.21 228.814 1328.25 296.481 1299.16 26.4451C1275.89 -189.584 1252.36 -345.197 1243.51 -396" stroke="black" stroke-opacity="0.06" stroke-width="90"/>
<path d="M51.4274 1016.79C2.52156 950.175 -65.9466 782.419 51.4274 644.303C198.145 471.657 511.185 539.324 482.094 269.288C458.822 53.259 435.297 -102.354 426.443 -153.157" stroke="black" stroke-opacity="0.06" stroke-width="90"/>
<path d="M-343.192 867.541C-392.098 800.928 -460.566 633.172 -343.192 495.056C-196.474 322.41 116.566 390.077 87.4752 120.041C64.2028 -95.988 40.6774 -251.601 31.8238 -302.404" stroke="black" stroke-opacity="0.06" stroke-width="90"/>
<rect x="332" y="94.9707" width="598" height="227" rx="87" fill="#004876" stroke="black" stroke-width="10"/>
<rect x="940" y="94.9707" width="168" height="227" rx="84" fill="#FEB008" stroke="black" stroke-width="10"/>
<rect x="465.5" y="287.471" width="924" height="224" rx="84" fill="#FEB008" stroke="black" stroke-width="9"/>
<rect x="332" y="94.9707" width="598" height="168" rx="84" fill="#038CE4" stroke="black" stroke-width="10"/>
<rect x="940" y="94.9707" width="168" height="168" rx="84" fill="#E83C25" stroke="black" stroke-width="10"/>
<rect x="350" y="431.971" width="188" height="188" rx="94" fill="#005891" stroke="black" stroke-width="10"/>
<rect x="1227" y="95.9707" width="188" height="188" rx="94" fill="#004B7C" stroke="black" stroke-width="10"/>
<rect x="143" y="261.971" width="189" height="188" rx="94" fill="#0078C5" stroke="black" stroke-width="10"/>
<rect x="465.5" y="287.471" width="924" height="168" rx="84" fill="#E83C25" stroke="black" stroke-width="9"/>
<path d="M409.164 217.971V138.018H447.117C454.883 137.945 461.609 139.84 467.297 143.705C472.984 147.679 475.901 154.369 476.047 163.775C475.573 182.515 465.93 191.702 447.117 191.338H430V217.971H409.164ZM430 154.697V175.205H444C447.281 175.278 449.961 174.494 452.039 172.854C454.154 171.286 455.211 168.734 455.211 165.197C455.211 161.406 454.154 158.689 452.039 157.049C449.961 155.481 447.281 154.697 444 154.697H430ZM492.989 160.166L483.911 188.166H502.067L493.208 160.166H492.989ZM452.684 217.971L482.544 138.018H503.708L533.622 217.971H511.911L506.989 203.643H479.098L474.067 217.971H452.684ZM522.892 217.971V138.018H563.634C571.035 138.018 577.507 139.731 583.048 143.158C588.627 146.658 591.489 152.437 591.634 160.494C591.634 164.833 590.632 168.807 588.627 172.416C586.548 176.062 583.377 178.778 579.111 180.564V180.783C581.262 181.221 583.048 182.077 584.47 183.354C585.892 184.702 587.059 186.307 587.97 188.166C589.611 191.994 590.541 195.913 590.759 199.924C590.832 201.965 591.088 204.992 591.525 209.002C591.78 210.934 592.127 212.684 592.564 214.252C593.002 215.893 593.512 217.132 594.095 217.971H573.533C573.059 217.314 572.713 216.348 572.494 215.072C572.275 213.869 572.056 212.63 571.838 211.354C571.546 208.583 571.327 206.541 571.181 205.229C571.108 203.114 570.908 201.09 570.58 199.158C570.288 197.226 569.741 195.476 568.939 193.908C568.173 192.34 567.043 191.101 565.548 190.189C563.981 189.314 561.976 188.877 559.533 188.877H543.728V217.971H522.892ZM543.728 154.697V172.744H561.173C567.517 172.671 570.744 169.536 570.853 163.338C570.744 160.348 569.723 158.143 567.791 156.721C565.785 155.372 563.288 154.697 560.298 154.697H543.728ZM619.186 160.166L610.108 188.166H628.264L619.405 160.166H619.186ZM578.881 217.971L608.741 138.018H629.905L659.819 217.971H638.108L633.186 203.643H605.295L600.264 217.971H578.881ZM649.089 217.971V138.018H683.488C709.154 138.455 722.224 151.671 722.698 177.666C722.224 204.39 709.154 217.825 683.488 217.971H649.089ZM669.925 155.9V200.033H679.769C694.717 200.361 702.081 192.869 701.863 177.557C701.717 163.119 694.352 155.9 679.769 155.9H669.925ZM749.43 160.166L740.352 188.166H758.508L749.648 160.166H749.43ZM709.125 217.971L738.984 138.018H760.148L790.062 217.971H768.352L763.43 203.643H735.539L730.508 217.971H709.125ZM763.484 117.51H771.414C770.977 121.374 769.719 124.656 767.641 127.354C765.526 130.197 762.336 131.656 758.07 131.729C756.43 131.729 754.862 131.473 753.367 130.963C751.799 130.562 750.359 130.143 749.047 129.705C746.349 128.429 743.961 127.755 741.883 127.682C740.607 127.682 739.549 128.174 738.711 129.158C737.836 130.179 737.234 131.364 736.906 132.713H728.977C729.414 128.848 730.836 125.385 733.242 122.322C735.466 119.187 738.565 117.583 742.539 117.51C744.034 117.51 745.565 117.729 747.133 118.166C748.628 118.604 750.086 119.132 751.508 119.752C754.424 121.247 756.849 122.031 758.781 122.104C760.057 122.104 761.133 121.575 762.008 120.518C762.445 120.08 762.828 119.606 763.156 119.096C763.375 118.622 763.484 118.093 763.484 117.51ZM776.325 177.994C776.325 166.036 779.752 156.174 786.606 148.408C793.424 140.497 803.14 136.468 815.755 136.322C828.442 136.468 838.177 140.497 844.958 148.408C851.739 156.174 855.13 166.036 855.13 177.994C855.13 189.77 851.739 199.596 844.958 207.471C838.177 215.455 828.442 219.52 815.755 219.666C803.14 219.52 793.424 215.455 786.606 207.471C779.752 199.596 776.325 189.77 776.325 177.994ZM797.161 177.994C797.088 184.192 798.546 189.606 801.536 194.236C804.343 199.085 809.083 201.583 815.755 201.729C822.39 201.583 827.203 199.085 830.192 194.236C832.963 189.606 834.348 184.192 834.348 177.994C834.348 171.796 832.963 166.346 830.192 161.643C827.203 156.867 822.39 154.406 815.755 154.26C809.083 154.406 804.343 156.867 801.536 161.643C798.546 166.346 797.088 171.796 797.161 177.994Z" fill="white"/>
<path fill-rule="evenodd" clip-rule="evenodd" d="M988.436 146.481C988.436 139.019 994.454 132.971 1001.88 132.971H1045.31C1052.73 132.971 1058.75 139.019 1058.75 146.481V209.727C1058.75 217.188 1052.73 223.237 1045.31 223.237H1001.88C994.454 223.237 988.436 217.188 988.436 209.727V146.481ZM1001.88 136.237C996.249 136.237 991.685 140.823 991.685 146.481V209.727C991.685 215.384 996.249 219.971 1001.88 219.971H1045.31C1050.94 219.971 1055.5 215.384 1055.5 209.727V146.481C1055.5 140.823 1050.94 136.237 1045.31 136.237H1001.88Z" fill="white"/>
<path d="M1044.51 140.897C1056.14 140.898 1065.56 148.663 1065.56 158.241C1065.56 163.148 1063.09 167.577 1059.11 170.732C1064.66 174.477 1068.22 180.304 1068.22 186.85C1068.22 198.148 1057.61 207.307 1044.51 207.307C1036.77 207.307 1029.9 204.111 1025.57 199.166C1022.78 207.791 1013.61 214.121 1002.72 214.121C989.619 214.121 979 204.962 979 193.664C979 187.118 982.565 181.29 988.111 177.546C984.138 174.391 981.666 169.961 981.666 165.056C981.666 155.477 991.09 147.712 1002.72 147.712C1014.34 147.712 1023.77 155.477 1023.77 165.056C1023.77 169.961 1021.29 174.389 1017.32 177.544C1018.95 178.644 1020.41 179.925 1021.66 181.35C1023.03 177.086 1025.97 173.382 1029.9 170.728C1025.93 167.573 1023.46 163.145 1023.46 158.241C1023.46 148.663 1032.89 140.898 1044.51 140.897ZM1002.72 183.589C997.974 183.589 994.125 186.908 994.125 191.001C994.125 195.094 997.974 198.413 1002.72 198.413C1007.47 198.413 1011.32 195.094 1011.32 191.001C1011.32 186.908 1007.47 183.589 1002.72 183.589ZM1044.51 176.769C1039.76 176.769 1035.91 180.087 1035.91 184.181C1035.91 188.274 1039.76 191.593 1044.51 191.593C1049.26 191.593 1053.11 188.274 1053.11 184.181C1053.11 180.087 1049.26 176.769 1044.51 176.769ZM1002.73 161.052C998.965 161.052 995.912 163.64 995.912 166.833C995.912 170.026 998.965 172.614 1002.73 172.614C1006.5 172.614 1009.55 170.026 1009.55 166.833C1009.55 163.64 1006.5 161.052 1002.73 161.052ZM1044.53 154.241C1040.76 154.241 1037.71 156.83 1037.71 160.022C1037.71 163.215 1040.76 165.804 1044.53 165.804C1048.29 165.804 1051.35 163.215 1051.35 160.022C1051.35 156.83 1048.29 154.241 1044.53 154.241Z" fill="white"/>
<path d="M1036.67 213.45V215.714H1035.18V209.5H1040.03V210.654H1036.67V212.296H1039.63V213.45H1036.67Z" fill="white"/>
<path d="M1041.03 209.5V215.714H1042.43V212.065L1044.31 215.057H1044.97L1046.86 211.984L1046.87 215.714H1048.26L1048.25 209.5H1047.03L1044.66 213.358L1042.26 209.5H1041.03Z" fill="white"/>
<path d="M560.71 364.619C557.614 364.619 554.95 364.133 552.718 363.161C550.522 362.153 548.83 360.551 547.642 358.355C546.454 356.159 545.86 353.315 545.86 349.823V326.927H550.126V350.687C550.126 354.107 551.044 356.663 552.88 358.355C554.752 360.047 557.362 360.893 560.71 360.893C564.13 360.893 566.794 360.047 568.702 358.355C570.646 356.663 571.618 354.107 571.618 350.687V326.927H575.83V349.823C575.83 353.315 575.218 356.159 573.994 358.355C572.806 360.551 571.078 362.153 568.81 363.161C566.578 364.133 563.878 364.619 560.71 364.619ZM585.623 363.971V326.927H592.103L601.769 352.577C601.985 353.189 602.201 353.855 602.417 354.575C602.633 355.259 602.831 355.925 603.011 356.573C603.227 357.185 603.389 357.707 603.497 358.139H603.821C603.965 357.635 604.145 357.041 604.361 356.357C604.577 355.673 604.775 355.007 604.955 354.359C605.171 353.675 605.369 353.081 605.549 352.577L615.215 326.927H621.641V363.971H617.375V340.913C617.375 340.013 617.393 339.005 617.429 337.889C617.465 336.737 617.483 335.621 617.483 334.541C617.519 333.461 617.537 332.633 617.537 332.057H617.159C617.015 332.597 616.817 333.245 616.565 334.001C616.349 334.721 616.115 335.459 615.863 336.215C615.647 336.971 615.431 337.673 615.215 338.321L605.279 363.971H601.823L591.941 338.321C591.725 337.745 591.509 337.115 591.293 336.431C591.077 335.747 590.861 335.027 590.645 334.271C590.429 333.515 590.213 332.777 589.997 332.057H589.619C589.655 332.777 589.673 333.677 589.673 334.757C589.709 335.837 589.727 336.917 589.727 337.997C589.763 339.077 589.781 340.049 589.781 340.913V363.971H585.623ZM642.998 363.971V326.927H656.336C660.296 326.927 663.644 327.575 666.38 328.871C669.152 330.131 671.258 332.129 672.698 334.865C674.174 337.565 674.912 341.093 674.912 345.449C674.912 349.733 674.174 353.243 672.698 355.979C671.258 358.715 669.152 360.731 666.38 362.027C663.644 363.323 660.296 363.971 656.336 363.971H642.998ZM647.264 360.299H656.174C658.37 360.299 660.35 360.047 662.114 359.543C663.878 359.003 665.39 358.175 666.65 357.059C667.91 355.907 668.864 354.431 669.512 352.631C670.16 350.831 670.484 348.653 670.484 346.097V344.963C670.484 342.335 670.16 340.121 669.512 338.321C668.864 336.485 667.91 335.009 666.65 333.893C665.426 332.741 663.932 331.913 662.168 331.409C660.404 330.869 658.406 330.599 656.174 330.599H647.264V360.299ZM682.812 363.971V326.927H687.078V363.971H682.812ZM692.358 363.971L707.1 326.927H712.824L727.62 363.971H723.03L719.142 354.197H700.566L696.732 363.971H692.358ZM702.024 350.525H717.684L712.824 338.159C712.716 337.871 712.554 337.439 712.338 336.863C712.122 336.287 711.87 335.639 711.582 334.919C711.33 334.163 711.06 333.407 710.772 332.651C710.52 331.895 710.268 331.211 710.016 330.599H709.638C709.422 331.283 709.134 332.093 708.774 333.029C708.45 333.965 708.108 334.901 707.748 335.837C707.424 336.737 707.136 337.511 706.884 338.159L702.024 350.525ZM760.064 364.619C756.284 364.619 753.08 363.917 750.452 362.513C747.86 361.109 745.88 358.985 744.512 356.141C743.18 353.297 742.514 349.733 742.514 345.449C742.514 339.041 744.062 334.253 747.158 331.085C750.254 327.881 754.592 326.279 760.172 326.279C763.376 326.279 766.184 326.801 768.596 327.845C771.044 328.853 772.952 330.383 774.32 332.435C775.724 334.451 776.426 337.025 776.426 340.157H772.106C772.106 337.817 771.62 335.909 770.648 334.433C769.676 332.921 768.29 331.805 766.49 331.085C764.726 330.329 762.602 329.951 760.118 329.951C757.454 329.951 755.132 330.473 753.152 331.517C751.172 332.561 749.642 334.199 748.562 336.431C747.482 338.627 746.942 341.507 746.942 345.071V346.205C746.942 349.697 747.482 352.523 748.562 354.683C749.642 356.843 751.172 358.427 753.152 359.435C755.132 360.443 757.472 360.947 760.172 360.947C762.656 360.947 764.798 360.587 766.598 359.867C768.398 359.111 769.784 357.995 770.756 356.519C771.728 355.007 772.214 353.081 772.214 350.741H776.426C776.426 353.909 775.706 356.519 774.266 358.571C772.862 360.623 770.936 362.153 768.488 363.161C766.04 364.133 763.232 364.619 760.064 364.619ZM800.478 364.619C796.662 364.619 793.368 363.917 790.596 362.513C787.86 361.073 785.754 358.931 784.278 356.087C782.802 353.243 782.064 349.697 782.064 345.449C782.064 341.165 782.802 337.619 784.278 334.811C785.754 331.967 787.86 329.843 790.596 328.439C793.368 326.999 796.662 326.279 800.478 326.279C804.33 326.279 807.624 326.999 810.36 328.439C813.132 329.843 815.238 331.967 816.678 334.811C818.154 337.619 818.892 341.165 818.892 345.449C818.892 349.697 818.154 353.243 816.678 356.087C815.238 358.931 813.132 361.073 810.36 362.513C807.624 363.917 804.33 364.619 800.478 364.619ZM800.478 360.947C802.602 360.947 804.528 360.677 806.256 360.137C807.984 359.561 809.46 358.661 810.684 357.437C811.908 356.213 812.844 354.665 813.492 352.793C814.176 350.921 814.518 348.671 814.518 346.043V344.909C814.518 342.245 814.176 339.977 813.492 338.105C812.844 336.233 811.908 334.685 810.684 333.461C809.46 332.237 807.984 331.355 806.256 330.815C804.528 330.239 802.602 329.951 800.478 329.951C798.354 329.951 796.428 330.239 794.7 330.815C793.008 331.355 791.55 332.237 790.326 333.461C789.102 334.685 788.148 336.233 787.464 338.105C786.816 339.977 786.492 342.245 786.492 344.909V346.043C786.492 348.671 786.816 350.921 787.464 352.793C788.148 354.665 789.102 356.213 790.326 357.437C791.55 358.661 793.008 359.561 794.7 360.137C796.428 360.677 798.354 360.947 800.478 360.947ZM826.777 363.971V326.927H833.257L842.923 352.577C843.139 353.189 843.355 353.855 843.571 354.575C843.787 355.259 843.985 355.925 844.165 356.573C844.381 357.185 844.543 357.707 844.651 358.139H844.975C845.119 357.635 845.299 357.041 845.515 356.357C845.731 355.673 845.929 355.007 846.109 354.359C846.325 353.675 846.523 353.081 846.703 352.577L856.369 326.927H862.795V363.971H858.529V340.913C858.529 340.013 858.547 339.005 858.583 337.889C858.619 336.737 858.637 335.621 858.637 334.541C858.673 333.461 858.691 332.633 858.691 332.057H858.313C858.169 332.597 857.971 333.245 857.719 334.001C857.503 334.721 857.269 335.459 857.017 336.215C856.801 336.971 856.585 337.673 856.369 338.321L846.433 363.971H842.977L833.095 338.321C832.879 337.745 832.663 337.115 832.447 336.431C832.231 335.747 832.015 335.027 831.799 334.271C831.583 333.515 831.367 332.777 831.151 332.057H830.773C830.809 332.777 830.827 333.677 830.827 334.757C830.863 335.837 830.881 336.917 830.881 337.997C830.917 339.077 830.935 340.049 830.935 340.913V363.971H826.777ZM872.603 363.971V326.927H890.747C893.267 326.927 895.337 327.413 896.957 328.385C898.613 329.321 899.837 330.617 900.629 332.273C901.457 333.929 901.871 335.819 901.871 337.943C901.871 340.139 901.403 342.101 900.467 343.829C899.531 345.557 898.235 346.907 896.579 347.879C894.923 348.815 893.015 349.283 890.855 349.283H876.869V363.971H872.603ZM876.869 345.611H890.531C892.619 345.611 894.311 344.945 895.607 343.613C896.903 342.245 897.551 340.373 897.551 337.997C897.551 336.449 897.281 335.135 896.741 334.055C896.237 332.939 895.463 332.093 894.419 331.517C893.375 330.905 892.079 330.599 890.531 330.599H876.869V345.611ZM908.41 363.971V326.927H912.676V360.245H930.982V363.971H908.41ZM936.465 363.971V326.927H964.815V330.599H940.731V343.127H962.439V346.853H940.731V360.299H965.139V363.971H936.465ZM982.187 363.971V330.653H969.065V326.927H999.683V330.653H986.453V363.971H982.187ZM1020.64 364.619C1016.83 364.619 1013.53 363.917 1010.76 362.513C1008.03 361.073 1005.92 358.931 1004.44 356.087C1002.97 353.243 1002.23 349.697 1002.23 345.449C1002.23 341.165 1002.97 337.619 1004.44 334.811C1005.92 331.967 1008.03 329.843 1010.76 328.439C1013.53 326.999 1016.83 326.279 1020.64 326.279C1024.5 326.279 1027.79 326.999 1030.53 328.439C1033.3 329.843 1035.4 331.967 1036.84 334.811C1038.32 337.619 1039.06 341.165 1039.06 345.449C1039.06 349.697 1038.32 353.243 1036.84 356.087C1035.4 358.931 1033.3 361.073 1030.53 362.513C1027.79 363.917 1024.5 364.619 1020.64 364.619ZM1020.64 360.947C1022.77 360.947 1024.69 360.677 1026.42 360.137C1028.15 359.561 1029.63 358.661 1030.85 357.437C1032.07 356.213 1033.01 354.665 1033.66 352.793C1034.34 350.921 1034.68 348.671 1034.68 346.043V344.909C1034.68 342.245 1034.34 339.977 1033.66 338.105C1033.01 336.233 1032.07 334.685 1030.85 333.461C1029.63 332.237 1028.15 331.355 1026.42 330.815C1024.69 330.239 1022.77 329.951 1020.64 329.951C1018.52 329.951 1016.59 330.239 1014.87 330.815C1013.17 331.355 1011.72 332.237 1010.49 333.461C1009.27 334.685 1008.31 336.233 1007.63 338.105C1006.98 339.977 1006.66 342.245 1006.66 344.909V346.043C1006.66 348.671 1006.98 350.921 1007.63 352.793C1008.31 354.665 1009.27 356.213 1010.49 357.437C1011.72 358.661 1013.17 359.561 1014.87 360.137C1016.59 360.677 1018.52 360.947 1020.64 360.947ZM1058.49 363.971V326.927H1071.83C1075.79 326.927 1079.14 327.575 1081.87 328.871C1084.65 330.131 1086.75 332.129 1088.19 334.865C1089.67 337.565 1090.41 341.093 1090.41 345.449C1090.41 349.733 1089.67 353.243 1088.19 355.979C1086.75 358.715 1084.65 360.731 1081.87 362.027C1079.14 363.323 1075.79 363.971 1071.83 363.971H1058.49ZM1062.76 360.299H1071.67C1073.86 360.299 1075.84 360.047 1077.61 359.543C1079.37 359.003 1080.88 358.175 1082.14 357.059C1083.4 355.907 1084.36 354.431 1085.01 352.631C1085.65 350.831 1085.98 348.653 1085.98 346.097V344.963C1085.98 342.335 1085.65 340.121 1085.01 338.321C1084.36 336.485 1083.4 335.009 1082.14 333.893C1080.92 332.741 1079.43 331.913 1077.66 331.409C1075.9 330.869 1073.9 330.599 1071.67 330.599H1062.76V360.299ZM1093.19 363.971L1107.93 326.927H1113.66L1128.45 363.971H1123.86L1119.98 354.197H1101.4L1097.57 363.971H1093.19ZM1102.86 350.525H1118.52L1113.66 338.159C1113.55 337.871 1113.39 337.439 1113.17 336.863C1112.96 336.287 1112.7 335.639 1112.42 334.919C1112.16 334.163 1111.89 333.407 1111.61 332.651C1111.35 331.895 1111.1 331.211 1110.85 330.599H1110.47C1110.26 331.283 1109.97 332.093 1109.61 333.029C1109.28 333.965 1108.94 334.901 1108.58 335.837C1108.26 336.737 1107.97 337.511 1107.72 338.159L1102.86 350.525ZM1147.3 364.619C1145.32 364.619 1143.39 364.439 1141.52 364.079C1139.65 363.719 1137.99 363.107 1136.55 362.243C1135.11 361.379 1133.98 360.245 1133.15 358.841C1132.32 357.437 1131.91 355.691 1131.91 353.603C1131.91 353.423 1131.91 353.261 1131.91 353.117C1131.91 352.937 1131.92 352.757 1131.96 352.577H1136.23C1136.23 352.721 1136.21 352.919 1136.17 353.171C1136.17 353.423 1136.17 353.639 1136.17 353.819C1136.17 355.403 1136.64 356.735 1137.58 357.815C1138.55 358.859 1139.84 359.651 1141.46 360.191C1143.12 360.695 1144.97 360.947 1147.03 360.947C1147.71 360.947 1148.52 360.911 1149.46 360.839C1150.43 360.731 1151.4 360.551 1152.37 360.299C1153.38 360.011 1154.3 359.633 1155.13 359.165C1155.95 358.661 1156.62 358.031 1157.12 357.275C1157.66 356.483 1157.93 355.511 1157.93 354.359C1157.93 353.027 1157.57 351.929 1156.85 351.065C1156.13 350.201 1155.18 349.499 1153.99 348.959C1152.84 348.383 1151.51 347.879 1150 347.447C1148.48 347.015 1146.94 346.601 1145.35 346.205C1143.77 345.809 1142.22 345.359 1140.71 344.855C1139.23 344.351 1137.9 343.721 1136.71 342.965C1135.52 342.209 1134.57 341.273 1133.85 340.157C1133.17 339.005 1132.82 337.601 1132.82 335.945C1132.82 334.505 1133.11 333.191 1133.69 332.003C1134.26 330.815 1135.15 329.807 1136.33 328.979C1137.52 328.115 1139.03 327.449 1140.87 326.981C1142.71 326.513 1144.88 326.279 1147.4 326.279C1149.31 326.279 1151.09 326.477 1152.75 326.873C1154.41 327.269 1155.86 327.899 1157.12 328.763C1158.38 329.591 1159.36 330.653 1160.04 331.949C1160.76 333.209 1161.12 334.739 1161.12 336.539V337.187H1156.91V336.269C1156.91 334.937 1156.49 333.821 1155.67 332.921C1154.84 331.985 1153.72 331.265 1152.32 330.761C1150.95 330.221 1149.38 329.951 1147.62 329.951C1145.21 329.951 1143.23 330.203 1141.68 330.707C1140.13 331.175 1138.98 331.841 1138.22 332.705C1137.47 333.533 1137.09 334.469 1137.09 335.513C1137.09 336.737 1137.45 337.763 1138.17 338.591C1138.89 339.383 1139.84 340.049 1141.03 340.589C1142.22 341.093 1143.55 341.561 1145.03 341.993C1146.54 342.389 1148.09 342.785 1149.67 343.181C1151.26 343.577 1152.79 344.045 1154.26 344.585C1155.77 345.089 1157.12 345.737 1158.31 346.529C1159.54 347.285 1160.49 348.239 1161.17 349.391C1161.89 350.543 1162.25 351.965 1162.25 353.657C1162.25 356.213 1161.61 358.301 1160.31 359.921C1159.05 361.541 1157.3 362.729 1155.07 363.485C1152.84 364.241 1150.25 364.619 1147.3 364.619ZM1181.79 363.971V326.927H1188.27L1197.93 352.577C1198.15 353.189 1198.36 353.855 1198.58 354.575C1198.8 355.259 1198.99 355.925 1199.17 356.573C1199.39 357.185 1199.55 357.707 1199.66 358.139H1199.98C1200.13 357.635 1200.31 357.041 1200.52 356.357C1200.74 355.673 1200.94 355.007 1201.12 354.359C1201.33 353.675 1201.53 353.081 1201.71 352.577L1211.38 326.927H1217.8V363.971H1213.54V340.913C1213.54 340.013 1213.56 339.005 1213.59 337.889C1213.63 336.737 1213.65 335.621 1213.65 334.541C1213.68 333.461 1213.7 332.633 1213.7 332.057H1213.32C1213.18 332.597 1212.98 333.245 1212.73 334.001C1212.51 334.721 1212.28 335.459 1212.03 336.215C1211.81 336.971 1211.59 337.673 1211.38 338.321L1201.44 363.971H1197.99L1188.1 338.321C1187.89 337.745 1187.67 337.115 1187.46 336.431C1187.24 335.747 1187.02 335.027 1186.81 334.271C1186.59 333.515 1186.38 332.777 1186.16 332.057H1185.78C1185.82 332.777 1185.84 333.677 1185.84 334.757C1185.87 335.837 1185.89 336.917 1185.89 337.997C1185.93 339.077 1185.94 340.049 1185.94 340.913V363.971H1181.79ZM1223.13 363.971L1237.87 326.927H1243.6L1258.39 363.971H1253.8L1249.91 354.197H1231.34L1227.5 363.971H1223.13ZM1232.8 350.525H1248.46L1243.6 338.159C1243.49 337.871 1243.33 337.439 1243.11 336.863C1242.89 336.287 1242.64 335.639 1242.35 334.919C1242.1 334.163 1241.83 333.407 1241.54 332.651C1241.29 331.895 1241.04 331.211 1240.79 330.599H1240.41C1240.19 331.283 1239.91 332.093 1239.55 333.029C1239.22 333.965 1238.88 334.901 1238.52 335.837C1238.2 336.737 1237.91 337.511 1237.66 338.159L1232.8 350.525ZM1263.73 363.971V326.927H1268V363.971H1263.73ZM1291.26 364.619C1289.28 364.619 1287.36 364.439 1285.48 364.079C1283.61 363.719 1281.96 363.107 1280.52 362.243C1279.08 361.379 1277.94 360.245 1277.11 358.841C1276.29 357.437 1275.87 355.691 1275.87 353.603C1275.87 353.423 1275.87 353.261 1275.87 353.117C1275.87 352.937 1275.89 352.757 1275.93 352.577H1280.19C1280.19 352.721 1280.17 352.919 1280.14 353.171C1280.14 353.423 1280.14 353.639 1280.14 353.819C1280.14 355.403 1280.61 356.735 1281.54 357.815C1282.51 358.859 1283.81 359.651 1285.43 360.191C1287.09 360.695 1288.94 360.947 1290.99 360.947C1291.68 360.947 1292.49 360.911 1293.42 360.839C1294.39 360.731 1295.37 360.551 1296.34 360.299C1297.35 360.011 1298.26 359.633 1299.09 359.165C1299.92 358.661 1300.59 358.031 1301.09 357.275C1301.63 356.483 1301.9 355.511 1301.9 354.359C1301.9 353.027 1301.54 351.929 1300.82 351.065C1300.1 350.201 1299.15 349.499 1297.96 348.959C1296.81 348.383 1295.47 347.879 1293.96 347.447C1292.45 347.015 1290.9 346.601 1289.32 346.205C1287.73 345.809 1286.19 345.359 1284.67 344.855C1283.2 344.351 1281.87 343.721 1280.68 342.965C1279.49 342.209 1278.54 341.273 1277.82 340.157C1277.13 339.005 1276.79 337.601 1276.79 335.945C1276.79 334.505 1277.08 333.191 1277.65 332.003C1278.23 330.815 1279.11 329.807 1280.3 328.979C1281.49 328.115 1283 327.449 1284.84 326.981C1286.67 326.513 1288.85 326.279 1291.37 326.279C1293.28 326.279 1295.06 326.477 1296.72 326.873C1298.37 327.269 1299.83 327.899 1301.09 328.763C1302.35 329.591 1303.32 330.653 1304.01 331.949C1304.73 333.209 1305.09 334.739 1305.09 336.539V337.187H1300.87V336.269C1300.87 334.937 1300.46 333.821 1299.63 332.921C1298.8 331.985 1297.69 331.265 1296.28 330.761C1294.92 330.221 1293.35 329.951 1291.59 329.951C1289.17 329.951 1287.19 330.203 1285.65 330.707C1284.1 331.175 1282.95 331.841 1282.19 332.705C1281.43 333.533 1281.06 334.469 1281.06 335.513C1281.06 336.737 1281.42 337.763 1282.14 338.591C1282.86 339.383 1283.81 340.049 1285 340.589C1286.19 341.093 1287.52 341.561 1288.99 341.993C1290.51 342.389 1292.05 342.785 1293.64 343.181C1295.22 343.577 1296.75 344.045 1298.23 344.585C1299.74 345.089 1301.09 345.737 1302.28 346.529C1303.5 347.285 1304.46 348.239 1305.14 349.391C1305.86 350.543 1306.22 351.965 1306.22 353.657C1306.22 356.213 1305.57 358.301 1304.28 359.921C1303.02 361.541 1301.27 362.729 1299.04 363.485C1296.81 364.241 1294.21 364.619 1291.26 364.619ZM545.104 416.971V379.927H564.382C567.046 379.927 569.26 380.431 571.024 381.439C572.824 382.411 574.174 383.797 575.074 385.597C576.01 387.361 576.478 389.467 576.478 391.915C576.478 394.363 575.992 396.505 575.02 398.341C574.084 400.141 572.698 401.545 570.862 402.553C569.026 403.561 566.776 404.065 564.112 404.065H553.15V416.971H545.104ZM553.15 397.477H563.032C564.724 397.477 566.02 396.991 566.92 396.019C567.856 395.047 568.324 393.697 568.324 391.969C568.324 390.781 568.126 389.791 567.73 388.999C567.334 388.207 566.74 387.595 565.948 387.163C565.192 386.731 564.22 386.515 563.032 386.515H553.15V397.477ZM581.86 416.971V379.927H611.452V386.515H589.96V394.777H608.968V401.311H589.96V410.329H611.776V416.971H581.86ZM618.721 416.971V379.927H633.841C637.693 379.927 640.969 380.593 643.669 381.925C646.369 383.257 648.439 385.291 649.879 388.027C651.355 390.727 652.093 394.201 652.093 398.449C652.093 402.661 651.355 406.135 649.879 408.871C648.439 411.607 646.369 413.641 643.669 414.973C640.969 416.305 637.693 416.971 633.841 416.971H618.721ZM626.767 410.329H633.787C635.407 410.329 636.847 410.095 638.107 409.627C639.367 409.159 640.411 408.475 641.239 407.575C642.067 406.639 642.697 405.487 643.129 404.119C643.561 402.715 643.777 401.095 643.777 399.259V397.639C643.777 395.803 643.561 394.201 643.129 392.833C642.697 391.429 642.067 390.277 641.239 389.377C640.411 388.441 639.367 387.739 638.107 387.271C636.847 386.767 635.407 386.515 633.787 386.515H626.767V410.329ZM658.641 416.971V379.927H666.687V416.971H658.641ZM674.883 416.971V379.927H690.003C693.855 379.927 697.131 380.593 699.831 381.925C702.531 383.257 704.601 385.291 706.041 388.027C707.517 390.727 708.255 394.201 708.255 398.449C708.255 402.661 707.517 406.135 706.041 408.871C704.601 411.607 702.531 413.641 699.831 414.973C697.131 416.305 693.855 416.971 690.003 416.971H674.883ZM682.929 410.329H689.949C691.569 410.329 693.009 410.095 694.269 409.627C695.529 409.159 696.573 408.475 697.401 407.575C698.229 406.639 698.859 405.487 699.291 404.119C699.723 402.715 699.939 401.095 699.939 399.259V397.639C699.939 395.803 699.723 394.201 699.291 392.833C698.859 391.429 698.229 390.277 697.401 389.377C696.573 388.441 695.529 387.739 694.269 387.271C693.009 386.767 691.569 386.515 689.949 386.515H682.929V410.329ZM710.179 416.971L724.435 379.927H734.371L748.627 416.971H739.933L737.287 409.681H721.141L718.495 416.971H710.179ZM723.463 403.201H734.965L731.671 394.075C731.527 393.679 731.347 393.211 731.131 392.671C730.951 392.095 730.753 391.465 730.537 390.781C730.321 390.097 730.105 389.431 729.889 388.783C729.709 388.099 729.529 387.487 729.349 386.947H729.025C728.845 387.631 728.611 388.441 728.323 389.377C728.035 390.277 727.747 391.159 727.459 392.023C727.171 392.851 726.937 393.535 726.757 394.075L723.463 403.201ZM767.454 417.619C765.294 417.619 763.242 417.403 761.298 416.971C759.354 416.539 757.626 415.855 756.114 414.919C754.638 413.947 753.468 412.741 752.604 411.301C751.776 409.825 751.362 408.043 751.362 405.955C751.362 405.775 751.362 405.595 751.362 405.415C751.362 405.199 751.38 405.037 751.416 404.929H759.408C759.372 405.037 759.354 405.181 759.354 405.361C759.354 405.541 759.354 405.703 759.354 405.847C759.354 406.999 759.66 407.971 760.272 408.763C760.92 409.555 761.856 410.149 763.08 410.545C764.304 410.941 765.726 411.139 767.346 411.139C768.39 411.139 769.308 411.085 770.1 410.977C770.928 410.833 771.648 410.653 772.26 410.437C772.908 410.185 773.43 409.897 773.826 409.573C774.258 409.249 774.564 408.871 774.744 408.439C774.96 408.007 775.068 407.521 775.068 406.981C775.068 406.009 774.744 405.217 774.096 404.605C773.484 403.993 772.62 403.471 771.504 403.039C770.424 402.607 769.2 402.211 767.832 401.851C766.464 401.491 765.06 401.131 763.62 400.771C762.18 400.375 760.776 399.907 759.408 399.367C758.04 398.791 756.816 398.107 755.736 397.315C754.656 396.523 753.792 395.515 753.144 394.291C752.496 393.067 752.172 391.591 752.172 389.863C752.172 388.027 752.55 386.443 753.306 385.111C754.098 383.779 755.196 382.681 756.6 381.817C758.004 380.953 759.624 380.323 761.46 379.927C763.296 379.495 765.294 379.279 767.454 379.279C769.47 379.279 771.378 379.495 773.178 379.927C774.978 380.323 776.562 380.971 777.93 381.871C779.298 382.771 780.36 383.905 781.116 385.273C781.908 386.641 782.304 388.261 782.304 390.133V390.781H774.474V390.349C774.474 389.377 774.186 388.549 773.61 387.865C773.034 387.181 772.224 386.641 771.18 386.245C770.136 385.849 768.912 385.651 767.508 385.651C765.996 385.651 764.7 385.795 763.62 386.083C762.576 386.371 761.766 386.803 761.19 387.379C760.65 387.919 760.38 388.567 760.38 389.323C760.38 390.187 760.686 390.907 761.298 391.483C761.946 392.023 762.81 392.509 763.89 392.941C765.006 393.337 766.248 393.697 767.616 394.021C768.984 394.345 770.388 394.705 771.828 395.101C773.268 395.497 774.672 395.965 776.04 396.505C777.408 397.045 778.632 397.729 779.712 398.557C780.792 399.349 781.656 400.339 782.304 401.527C782.952 402.715 783.276 404.137 783.276 405.793C783.276 408.637 782.592 410.923 781.224 412.651C779.856 414.379 777.984 415.639 775.608 416.431C773.232 417.223 770.514 417.619 767.454 417.619ZM800.286 416.971V379.927H807.684L822.588 399.907C822.804 400.159 823.074 400.519 823.398 400.987C823.722 401.419 824.028 401.851 824.316 402.283C824.604 402.715 824.802 403.057 824.91 403.309H825.18C825.18 402.697 825.18 402.103 825.18 401.527C825.18 400.915 825.18 400.375 825.18 399.907V379.927H832.794V416.971H825.396L810.168 396.505C809.808 396.001 809.43 395.443 809.034 394.831C808.638 394.219 808.35 393.751 808.17 393.427H807.9C807.9 393.967 807.9 394.507 807.9 395.047C807.9 395.551 807.9 396.037 807.9 396.505V416.971H800.286ZM858.277 417.619C854.353 417.619 850.969 416.917 848.125 415.513C845.281 414.109 843.103 411.985 841.591 409.141C840.079 406.297 839.323 402.733 839.323 398.449C839.323 394.093 840.079 390.511 841.591 387.703C843.103 384.859 845.281 382.753 848.125 381.385C850.969 379.981 854.353 379.279 858.277 379.279C862.273 379.279 865.675 379.981 868.483 381.385C871.327 382.753 873.505 384.859 875.017 387.703C876.529 390.511 877.285 394.093 877.285 398.449C877.285 402.733 876.529 406.297 875.017 409.141C873.505 411.985 871.327 414.109 868.483 415.513C865.675 416.917 862.273 417.619 858.277 417.619ZM858.277 411.031C860.041 411.031 861.589 410.779 862.921 410.275C864.253 409.771 865.369 409.015 866.269 408.007C867.169 406.999 867.853 405.775 868.321 404.335C868.789 402.859 869.023 401.185 869.023 399.313V397.639C869.023 395.731 868.789 394.039 868.321 392.563C867.853 391.087 867.169 389.863 866.269 388.891C865.369 387.883 864.253 387.127 862.921 386.623C861.589 386.119 860.041 385.867 858.277 385.867C856.549 385.867 855.019 386.119 853.687 386.623C852.355 387.127 851.239 387.883 850.339 388.891C849.439 389.863 848.755 391.087 848.287 392.563C847.855 394.039 847.639 395.731 847.639 397.639V399.313C847.639 401.185 847.855 402.859 848.287 404.335C848.755 405.775 849.439 406.999 850.339 408.007C851.239 409.015 852.355 409.771 853.687 410.275C855.019 410.779 856.549 411.031 858.277 411.031ZM910.455 417.619C907.071 417.619 904.155 417.079 901.707 415.999C899.295 414.919 897.441 413.299 896.145 411.139C894.849 408.943 894.201 406.225 894.201 402.985V379.927H902.301V402.769C902.301 405.433 903.003 407.485 904.407 408.925C905.811 410.329 907.827 411.031 910.455 411.031C913.083 411.031 915.099 410.329 916.503 408.925C917.943 407.485 918.663 405.433 918.663 402.769V379.927H926.763V402.985C926.763 406.225 926.115 408.943 924.819 411.139C923.523 413.299 921.651 414.919 919.203 415.999C916.791 417.079 913.875 417.619 910.455 417.619ZM934.811 416.971V379.927H942.857V410.113H961.541V416.971H934.811ZM970.779 416.971V386.677H958.899V379.927H990.813V386.677H978.879V416.971H970.779ZM996.247 416.971V379.927H1004.29V416.971H996.247ZM1012.49 416.971V379.927H1024.75L1030.04 398.881C1030.25 399.565 1030.47 400.375 1030.69 401.311C1030.9 402.247 1031.12 403.183 1031.33 404.119C1031.59 405.019 1031.78 405.829 1031.93 406.549H1032.36C1032.43 405.937 1032.56 405.217 1032.74 404.389C1032.92 403.525 1033.12 402.607 1033.33 401.635C1033.55 400.663 1033.78 399.727 1034.03 398.827L1039.33 379.927H1051.37V416.971H1043.43V399.421C1043.43 397.801 1043.43 396.181 1043.43 394.561C1043.47 392.905 1043.5 391.465 1043.54 390.241C1043.61 389.017 1043.65 388.225 1043.65 387.865H1043.21C1043.14 388.261 1042.96 388.999 1042.67 390.079C1042.42 391.123 1042.13 392.239 1041.81 393.427C1041.52 394.615 1041.25 395.641 1041 396.505L1035.22 416.971H1028.2L1022.37 396.559C1022.15 395.803 1021.9 394.921 1021.61 393.913C1021.36 392.869 1021.11 391.807 1020.86 390.727C1020.64 389.611 1020.43 388.657 1020.21 387.865H1019.78C1019.81 388.837 1019.85 390.007 1019.89 391.375C1019.92 392.707 1019.96 394.093 1019.99 395.533C1020.03 396.937 1020.05 398.233 1020.05 399.421V416.971H1012.49ZM1076.86 417.619C1072.94 417.619 1069.55 416.917 1066.71 415.513C1063.86 414.109 1061.69 411.985 1060.17 409.141C1058.66 406.297 1057.91 402.733 1057.91 398.449C1057.91 394.093 1058.66 390.511 1060.17 387.703C1061.69 384.859 1063.86 382.753 1066.71 381.385C1069.55 379.981 1072.94 379.279 1076.86 379.279C1080.86 379.279 1084.26 379.981 1087.07 381.385C1089.91 382.753 1092.09 384.859 1093.6 387.703C1095.11 390.511 1095.87 394.093 1095.87 398.449C1095.87 402.733 1095.11 406.297 1093.6 409.141C1092.09 411.985 1089.91 414.109 1087.07 415.513C1084.26 416.917 1080.86 417.619 1076.86 417.619ZM1076.86 411.031C1078.62 411.031 1080.17 410.779 1081.5 410.275C1082.84 409.771 1083.95 409.015 1084.85 408.007C1085.75 406.999 1086.44 405.775 1086.9 404.335C1087.37 402.859 1087.61 401.185 1087.61 399.313V397.639C1087.61 395.731 1087.37 394.039 1086.9 392.563C1086.44 391.087 1085.75 389.863 1084.85 388.891C1083.95 387.883 1082.84 387.127 1081.5 386.623C1080.17 386.119 1078.62 385.867 1076.86 385.867C1075.13 385.867 1073.6 386.119 1072.27 386.623C1070.94 387.127 1069.82 387.883 1068.92 388.891C1068.02 389.863 1067.34 391.087 1066.87 392.563C1066.44 394.039 1066.22 395.731 1066.22 397.639V399.313C1066.22 401.185 1066.44 402.859 1066.87 404.335C1067.34 405.775 1068.02 406.999 1068.92 408.007C1069.82 409.015 1070.94 409.771 1072.27 410.275C1073.6 410.779 1075.13 411.031 1076.86 411.031ZM1109.22 416.971L1123.48 379.927H1133.41L1147.67 416.971H1138.97L1136.33 409.681H1120.18L1117.54 416.971H1109.22ZM1122.5 403.201H1134.01L1130.71 394.075C1130.57 393.679 1130.39 393.211 1130.17 392.671C1129.99 392.095 1129.79 391.465 1129.58 390.781C1129.36 390.097 1129.15 389.431 1128.93 388.783C1128.75 388.099 1128.57 387.487 1128.39 386.947H1128.07C1127.89 387.631 1127.65 388.441 1127.36 389.377C1127.08 390.277 1126.79 391.159 1126.5 392.023C1126.21 392.851 1125.98 393.535 1125.8 394.075L1122.5 403.201ZM1152.08 416.971V379.927H1159.47L1174.38 399.907C1174.59 400.159 1174.86 400.519 1175.19 400.987C1175.51 401.419 1175.82 401.851 1176.11 402.283C1176.39 402.715 1176.59 403.057 1176.7 403.309H1176.97C1176.97 402.697 1176.97 402.103 1176.97 401.527C1176.97 400.915 1176.97 400.375 1176.97 399.907V379.927H1184.58V416.971H1177.19L1161.96 396.505C1161.6 396.001 1161.22 395.443 1160.82 394.831C1160.43 394.219 1160.14 393.751 1159.96 393.427H1159.69C1159.69 393.967 1159.69 394.507 1159.69 395.047C1159.69 395.551 1159.69 396.037 1159.69 396.505V416.971H1152.08ZM1210.07 417.619C1206.14 417.619 1202.76 416.917 1199.92 415.513C1197.07 414.109 1194.89 411.985 1193.38 409.141C1191.87 406.297 1191.11 402.733 1191.11 398.449C1191.11 394.093 1191.87 390.511 1193.38 387.703C1194.89 384.859 1197.07 382.753 1199.92 381.385C1202.76 379.981 1206.14 379.279 1210.07 379.279C1214.06 379.279 1217.47 379.981 1220.27 381.385C1223.12 382.753 1225.3 384.859 1226.81 387.703C1228.32 390.511 1229.08 394.093 1229.08 398.449C1229.08 402.733 1228.32 406.297 1226.81 409.141C1225.3 411.985 1223.12 414.109 1220.27 415.513C1217.47 416.917 1214.06 417.619 1210.07 417.619ZM1210.07 411.031C1211.83 411.031 1213.38 410.779 1214.71 410.275C1216.04 409.771 1217.16 409.015 1218.06 408.007C1218.96 406.999 1219.64 405.775 1220.11 404.335C1220.58 402.859 1220.81 401.185 1220.81 399.313V397.639C1220.81 395.731 1220.58 394.039 1220.11 392.563C1219.64 391.087 1218.96 389.863 1218.06 388.891C1217.16 387.883 1216.04 387.127 1214.71 386.623C1213.38 386.119 1211.83 385.867 1210.07 385.867C1208.34 385.867 1206.81 386.119 1205.48 386.623C1204.15 387.127 1203.03 387.883 1202.13 388.891C1201.23 389.863 1200.55 391.087 1200.08 392.563C1199.65 394.039 1199.43 395.731 1199.43 397.639V399.313C1199.43 401.185 1199.65 402.859 1200.08 404.335C1200.55 405.775 1201.23 406.999 1202.13 408.007C1203.03 409.015 1204.15 409.771 1205.48 410.275C1206.81 410.779 1208.34 411.031 1210.07 411.031ZM1237.28 406.117L1235.45 379.927H1243.87L1241.98 406.117H1237.28ZM1235.82 416.971V409.411H1243.49V416.971H1235.82Z" fill="white"/>
<path d="M397.796 559.971L398.612 555.789C399.224 552.457 400.482 549.397 402.386 546.609C404.29 543.821 406.568 541.237 409.22 538.857C411.94 536.477 414.83 534.233 417.89 532.125C420.95 530.017 423.942 528.011 426.866 526.107C429.858 524.135 432.578 522.163 435.026 520.191C437.542 518.219 439.514 516.213 440.942 514.173C442.438 512.133 443.186 509.991 443.186 507.747C443.186 506.115 442.54 504.619 441.248 503.259C440.024 501.899 437.916 501.219 434.924 501.219C432.612 501.219 430.572 501.661 428.804 502.545C427.104 503.361 425.71 504.517 424.622 506.013C423.602 507.509 422.888 509.277 422.48 511.317L421.97 514.377H406.262C406.67 509.889 407.69 506.013 409.322 502.749C411.022 499.485 413.232 496.833 415.952 494.793C418.74 492.685 421.868 491.155 425.336 490.203C428.872 489.183 432.612 488.673 436.556 488.673C441.86 488.673 446.246 489.489 449.714 491.121C453.25 492.753 455.868 494.963 457.568 497.751C459.268 500.471 460.118 503.497 460.118 506.829C460.118 509.821 459.608 512.609 458.588 515.193C457.636 517.709 456.31 520.055 454.61 522.231C452.91 524.339 450.972 526.311 448.796 528.147C446.62 529.983 444.342 531.717 441.962 533.349C439.582 534.913 437.202 536.443 434.822 537.939C432.442 539.435 430.198 540.931 428.09 542.427C427.478 542.835 426.832 543.345 426.152 543.957C425.472 544.501 424.928 545.011 424.52 545.487H454.1L451.55 559.971H397.796ZM472.46 526.413C467.02 526.413 462.838 525.257 459.914 522.945C456.99 520.565 455.528 517.029 455.528 512.337C455.528 511.249 455.562 510.195 455.63 509.175C455.766 508.087 455.936 507.033 456.14 506.013C456.752 502.341 457.976 499.213 459.812 496.629C461.648 494.045 463.926 492.107 466.646 490.815C469.434 489.455 472.528 488.775 475.928 488.775C481.436 488.775 485.618 489.931 488.474 492.243C491.398 494.555 492.86 498.057 492.86 502.749C492.86 503.769 492.826 504.789 492.758 505.809C492.69 506.829 492.554 507.951 492.35 509.175C491.67 512.847 490.378 515.975 488.474 518.559C486.638 521.075 484.326 523.013 481.538 524.373C478.818 525.733 475.792 526.413 472.46 526.413ZM472.358 518.457C474.874 518.457 476.846 517.607 478.274 515.907C479.702 514.207 480.688 511.793 481.232 508.665C481.436 507.577 481.572 506.693 481.64 506.013C481.776 505.333 481.844 504.789 481.844 504.381C481.912 503.905 481.946 503.429 481.946 502.953C481.946 500.845 481.47 499.281 480.518 498.261C479.566 497.173 478.07 496.629 476.03 496.629C473.446 496.629 471.406 497.513 469.91 499.281C468.482 501.049 467.53 503.395 467.054 506.319C466.918 507.339 466.782 508.189 466.646 508.869C466.51 509.549 466.408 510.161 466.34 510.705C466.34 511.249 466.34 511.725 466.34 512.133C466.34 514.241 466.816 515.839 467.768 516.927C468.788 517.947 470.318 518.457 472.358 518.457Z" fill="#038CE4"/>
<path d="M1303.46 225.195C1297.68 225.195 1292.88 224.481 1289.08 223.053C1285.34 221.625 1282.51 219.619 1280.61 217.035C1278.71 214.451 1277.75 211.493 1277.75 208.161C1277.75 207.481 1277.79 206.699 1277.86 205.815C1277.99 204.931 1278.2 203.911 1278.47 202.755H1293.97C1293.84 203.503 1293.73 204.115 1293.67 204.591C1293.6 205.067 1293.56 205.509 1293.56 205.917C1293.56 208.229 1294.41 209.997 1296.11 211.221C1297.88 212.377 1300.33 212.955 1303.46 212.955C1306.04 212.955 1308.32 212.479 1310.29 211.527C1312.26 210.575 1313.79 209.215 1314.88 207.447C1316.04 205.611 1316.62 203.401 1316.62 200.817C1316.62 199.117 1316.24 197.791 1315.49 196.839C1314.75 195.819 1313.73 195.105 1312.43 194.697C1311.21 194.289 1309.82 194.085 1308.25 194.085H1301.62L1303.56 182.559H1309.58C1311.01 182.559 1312.33 182.321 1313.56 181.845C1314.85 181.369 1316 180.689 1317.02 179.805C1318.04 178.853 1318.83 177.731 1319.37 176.439C1319.91 175.079 1320.19 173.549 1320.19 171.849C1320.19 170.421 1319.85 169.197 1319.17 168.177C1318.55 167.157 1317.6 166.375 1316.31 165.831C1315.09 165.219 1313.59 164.913 1311.82 164.913C1309.71 164.913 1307.88 165.287 1306.31 166.035C1304.75 166.715 1303.46 167.667 1302.44 168.891C1301.49 170.115 1300.87 171.509 1300.6 173.073L1300.4 174.399H1285.3L1285.71 172.053C1286.39 168.313 1287.92 164.981 1290.3 162.057C1292.75 159.133 1295.94 156.855 1299.89 155.223C1303.9 153.523 1308.49 152.673 1313.66 152.673C1318.62 152.673 1322.87 153.353 1326.41 154.713C1329.94 156.073 1332.63 158.011 1334.47 160.527C1336.37 162.975 1337.32 165.899 1337.32 169.299C1337.32 172.359 1336.71 175.113 1335.49 177.561C1334.26 179.941 1332.6 181.947 1330.49 183.579C1328.38 185.211 1326.1 186.469 1323.65 187.353L1323.55 187.761C1326.54 188.849 1328.89 190.617 1330.59 193.065C1332.36 195.445 1333.24 198.403 1333.24 201.939C1333.24 206.903 1331.92 211.119 1329.26 214.587C1326.61 218.055 1323.01 220.707 1318.45 222.543C1313.9 224.311 1308.9 225.195 1303.46 225.195ZM1349.46 190.413C1344.02 190.413 1339.84 189.257 1336.91 186.945C1333.99 184.565 1332.53 181.029 1332.53 176.337C1332.53 175.249 1332.56 174.195 1332.63 173.175C1332.77 172.087 1332.94 171.033 1333.14 170.013C1333.75 166.341 1334.98 163.213 1336.81 160.629C1338.65 158.045 1340.93 156.107 1343.65 154.815C1346.43 153.455 1349.53 152.775 1352.93 152.775C1358.44 152.775 1362.62 153.931 1365.47 156.243C1368.4 158.555 1369.86 162.057 1369.86 166.749C1369.86 167.769 1369.83 168.789 1369.76 169.809C1369.69 170.829 1369.55 171.951 1369.35 173.175C1368.67 176.847 1367.38 179.975 1365.47 182.559C1363.64 185.075 1361.33 187.013 1358.54 188.373C1355.82 189.733 1352.79 190.413 1349.46 190.413ZM1349.36 182.457C1351.87 182.457 1353.85 181.607 1355.27 179.907C1356.7 178.207 1357.69 175.793 1358.23 172.665C1358.44 171.577 1358.57 170.693 1358.64 170.013C1358.78 169.333 1358.84 168.789 1358.84 168.381C1358.91 167.905 1358.95 167.429 1358.95 166.953C1358.95 164.845 1358.47 163.281 1357.52 162.261C1356.57 161.173 1355.07 160.629 1353.03 160.629C1350.45 160.629 1348.41 161.513 1346.91 163.281C1345.48 165.049 1344.53 167.395 1344.05 170.319C1343.92 171.339 1343.78 172.189 1343.65 172.869C1343.51 173.549 1343.41 174.161 1343.34 174.705C1343.34 175.249 1343.34 175.725 1343.34 176.133C1343.34 178.241 1343.82 179.839 1344.77 180.927C1345.79 181.947 1347.32 182.457 1349.36 182.457Z" fill="#038CE4"/>
<path d="M193.958 389.971L196.304 376.813H213.032L219.662 339.379H202.832L204.668 329.485C206.64 329.349 208.85 329.009 211.298 328.465C213.746 327.853 216.262 327.105 218.846 326.221C221.498 325.337 224.048 324.351 226.496 323.263C229.012 322.175 231.29 321.019 233.33 319.795H239.858L229.76 376.813H245.57L243.224 389.971H193.958ZM265.46 356.413C260.02 356.413 255.838 355.257 252.914 352.945C249.99 350.565 248.528 347.029 248.528 342.337C248.528 341.249 248.562 340.195 248.63 339.175C248.766 338.087 248.936 337.033 249.14 336.013C249.752 332.341 250.976 329.213 252.812 326.629C254.648 324.045 256.926 322.107 259.646 320.815C262.434 319.455 265.528 318.775 268.928 318.775C274.436 318.775 278.618 319.931 281.474 322.243C284.398 324.555 285.86 328.057 285.86 332.749C285.86 333.769 285.826 334.789 285.758 335.809C285.69 336.829 285.554 337.951 285.35 339.175C284.67 342.847 283.378 345.975 281.474 348.559C279.638 351.075 277.326 353.013 274.538 354.373C271.818 355.733 268.792 356.413 265.46 356.413ZM265.358 348.457C267.874 348.457 269.846 347.607 271.274 345.907C272.702 344.207 273.688 341.793 274.232 338.665C274.436 337.577 274.572 336.693 274.64 336.013C274.776 335.333 274.844 334.789 274.844 334.381C274.912 333.905 274.946 333.429 274.946 332.953C274.946 330.845 274.47 329.281 273.518 328.261C272.566 327.173 271.07 326.629 269.03 326.629C266.446 326.629 264.406 327.513 262.91 329.281C261.482 331.049 260.53 333.395 260.054 336.319C259.918 337.339 259.782 338.189 259.646 338.869C259.51 339.549 259.408 340.161 259.34 340.705C259.34 341.249 259.34 341.725 259.34 342.133C259.34 344.241 259.816 345.839 260.768 346.927C261.788 347.947 263.318 348.457 265.358 348.457Z" fill="#038CE4"/>
<rect x="650.5" y="487.471" width="614" height="131" rx="40.5" fill="#004876" stroke="black" stroke-width="9"/>
<rect x="650.5" y="485.471" width="614" height="80" rx="40" fill="black" stroke="black" stroke-width="9"/>
<path d="M708.2 535.971V532.387H713.448V519.427H708.168V516.739C708.872 516.675 709.683 516.515 710.6 516.259C711.539 515.981 712.477 515.651 713.416 515.267C714.355 514.861 715.197 514.435 715.944 513.987H717.928V532.387H722.824V535.971H708.2ZM732.776 535.971V514.019H741.736C744.018 514.019 745.96 514.413 747.56 515.203C749.16 515.992 750.386 517.197 751.24 518.819C752.114 520.419 752.552 522.477 752.552 524.995C752.552 527.491 752.114 529.549 751.24 531.171C750.386 532.792 749.16 533.997 747.56 534.787C745.96 535.576 744.018 535.971 741.736 535.971H732.776ZM737.544 532.035H741.704C742.664 532.035 743.517 531.896 744.264 531.619C745.01 531.341 745.629 530.936 746.12 530.403C746.61 529.848 746.984 529.165 747.24 528.355C747.496 527.523 747.624 526.563 747.624 525.475V524.515C747.624 523.427 747.496 522.477 747.24 521.667C746.984 520.835 746.61 520.152 746.12 519.619C745.629 519.064 745.01 518.648 744.264 518.371C743.517 518.072 742.664 517.923 741.704 517.923H737.544V532.035ZM756.432 535.971V514.019H773.968V517.923H761.232V522.819H772.496V526.691H761.232V532.035H774.16V535.971H756.432ZM782.317 535.971L790.765 514.019H796.653L805.101 535.971H799.949L798.381 531.651H788.813L787.245 535.971H782.317ZM790.189 527.811H797.005L795.053 522.403C794.968 522.168 794.861 521.891 794.733 521.571C794.626 521.229 794.509 520.856 794.381 520.451C794.253 520.045 794.125 519.651 793.997 519.267C793.89 518.861 793.784 518.499 793.677 518.179H793.485C793.378 518.584 793.24 519.064 793.069 519.619C792.898 520.152 792.728 520.675 792.557 521.187C792.386 521.677 792.248 522.083 792.141 522.403L790.189 527.811ZM817.197 536.355C813.741 536.355 811.075 535.437 809.197 533.603C807.341 531.747 806.413 528.877 806.413 524.995C806.413 522.413 806.861 520.291 807.757 518.627C808.653 516.941 809.955 515.693 811.661 514.883C813.368 514.051 815.416 513.635 817.805 513.635C819.235 513.635 820.579 513.795 821.837 514.115C823.096 514.435 824.205 514.925 825.165 515.587C826.147 516.248 826.904 517.08 827.437 518.083C827.992 519.064 828.269 520.237 828.269 521.603H823.437C823.437 520.941 823.288 520.355 822.989 519.843C822.712 519.331 822.317 518.904 821.805 518.563C821.293 518.221 820.707 517.965 820.045 517.795C819.384 517.624 818.691 517.539 817.965 517.539C816.856 517.539 815.885 517.688 815.053 517.987C814.221 518.264 813.528 518.701 812.973 519.299C812.44 519.875 812.035 520.6 811.757 521.475C811.48 522.349 811.341 523.363 811.341 524.515V525.475C811.341 527.075 811.576 528.387 812.045 529.411C812.515 530.435 813.219 531.203 814.157 531.715C815.096 532.205 816.259 532.451 817.645 532.451C818.797 532.451 819.811 532.28 820.685 531.939C821.581 531.576 822.275 531.064 822.765 530.403C823.277 529.741 823.533 528.931 823.533 527.971V527.747H816.973V524.099H828.269V535.971H825.133L824.717 533.603C824.077 534.221 823.384 534.733 822.637 535.139C821.912 535.544 821.101 535.843 820.205 536.035C819.309 536.248 818.307 536.355 817.197 536.355ZM843.11 536.355C840.784 536.355 838.779 535.939 837.094 535.107C835.408 534.275 834.118 533.016 833.222 531.331C832.326 529.645 831.878 527.533 831.878 524.995C831.878 522.413 832.326 520.291 833.222 518.627C834.118 516.941 835.408 515.693 837.094 514.883C838.779 514.051 840.784 513.635 843.11 513.635C845.478 513.635 847.494 514.051 849.158 514.883C850.843 515.693 852.134 516.941 853.03 518.627C853.926 520.291 854.374 522.413 854.374 524.995C854.374 527.533 853.926 529.645 853.03 531.331C852.134 533.016 850.843 534.275 849.158 535.107C847.494 535.939 845.478 536.355 843.11 536.355ZM843.11 532.451C844.155 532.451 845.072 532.301 845.862 532.003C846.651 531.704 847.312 531.256 847.846 530.659C848.379 530.061 848.784 529.336 849.062 528.483C849.339 527.608 849.478 526.616 849.478 525.507V524.515C849.478 523.384 849.339 522.381 849.062 521.507C848.784 520.632 848.379 519.907 847.846 519.331C847.312 518.733 846.651 518.285 845.862 517.987C845.072 517.688 844.155 517.539 843.11 517.539C842.086 517.539 841.179 517.688 840.39 517.987C839.6 518.285 838.939 518.733 838.406 519.331C837.872 519.907 837.467 520.632 837.19 521.507C836.934 522.381 836.806 523.384 836.806 524.515V525.507C836.806 526.616 836.934 527.608 837.19 528.483C837.467 529.336 837.872 530.061 838.406 530.659C838.939 531.256 839.6 531.704 840.39 532.003C841.179 532.301 842.086 532.451 843.11 532.451ZM866.789 536.355C865.509 536.355 864.293 536.227 863.141 535.971C861.989 535.715 860.965 535.309 860.069 534.755C859.194 534.179 858.501 533.464 857.989 532.611C857.498 531.736 857.253 530.68 857.253 529.443C857.253 529.336 857.253 529.229 857.253 529.123C857.253 528.995 857.263 528.899 857.285 528.835H862.021C861.999 528.899 861.989 528.984 861.989 529.091C861.989 529.197 861.989 529.293 861.989 529.379C861.989 530.061 862.17 530.637 862.533 531.107C862.917 531.576 863.471 531.928 864.197 532.163C864.922 532.397 865.765 532.515 866.725 532.515C867.343 532.515 867.887 532.483 868.357 532.419C868.847 532.333 869.274 532.227 869.637 532.099C870.021 531.949 870.33 531.779 870.565 531.587C870.821 531.395 871.002 531.171 871.109 530.915C871.237 530.659 871.301 530.371 871.301 530.051C871.301 529.475 871.109 529.005 870.725 528.643C870.362 528.28 869.85 527.971 869.189 527.715C868.549 527.459 867.823 527.224 867.013 527.011C866.202 526.797 865.37 526.584 864.517 526.371C863.663 526.136 862.831 525.859 862.021 525.539C861.21 525.197 860.485 524.792 859.845 524.323C859.205 523.853 858.693 523.256 858.309 522.531C857.925 521.805 857.733 520.931 857.733 519.907C857.733 518.819 857.957 517.88 858.405 517.091C858.874 516.301 859.525 515.651 860.357 515.139C861.189 514.627 862.149 514.253 863.237 514.019C864.325 513.763 865.509 513.635 866.789 513.635C867.983 513.635 869.114 513.763 870.181 514.019C871.247 514.253 872.186 514.637 872.997 515.171C873.807 515.704 874.437 516.376 874.885 517.187C875.354 517.997 875.589 518.957 875.589 520.067V520.451H870.949V520.195C870.949 519.619 870.778 519.128 870.437 518.723C870.095 518.317 869.615 517.997 868.997 517.763C868.378 517.528 867.653 517.411 866.821 517.411C865.925 517.411 865.157 517.496 864.517 517.667C863.898 517.837 863.418 518.093 863.077 518.435C862.757 518.755 862.597 519.139 862.597 519.587C862.597 520.099 862.778 520.525 863.141 520.867C863.525 521.187 864.037 521.475 864.677 521.731C865.338 521.965 866.074 522.179 866.885 522.371C867.695 522.563 868.527 522.776 869.381 523.011C870.234 523.245 871.066 523.523 871.877 523.843C872.687 524.163 873.413 524.568 874.053 525.059C874.693 525.528 875.205 526.115 875.589 526.819C875.973 527.523 876.165 528.365 876.165 529.347C876.165 531.032 875.759 532.387 874.949 533.411C874.138 534.435 873.029 535.181 871.621 535.651C870.213 536.12 868.602 536.355 866.789 536.355ZM885.371 535.971V518.019H878.331V514.019H897.243V518.019H890.171V535.971H885.371ZM909.86 536.355C907.534 536.355 905.529 535.939 903.844 535.107C902.158 534.275 900.868 533.016 899.972 531.331C899.076 529.645 898.628 527.533 898.628 524.995C898.628 522.413 899.076 520.291 899.972 518.627C900.868 516.941 902.158 515.693 903.844 514.883C905.529 514.051 907.534 513.635 909.86 513.635C912.228 513.635 914.244 514.051 915.908 514.883C917.593 515.693 918.884 516.941 919.78 518.627C920.676 520.291 921.124 522.413 921.124 524.995C921.124 527.533 920.676 529.645 919.78 531.331C918.884 533.016 917.593 534.275 915.908 535.107C914.244 535.939 912.228 536.355 909.86 536.355ZM909.86 532.451C910.905 532.451 911.822 532.301 912.612 532.003C913.401 531.704 914.062 531.256 914.596 530.659C915.129 530.061 915.534 529.336 915.812 528.483C916.089 527.608 916.228 526.616 916.228 525.507V524.515C916.228 523.384 916.089 522.381 915.812 521.507C915.534 520.632 915.129 519.907 914.596 519.331C914.062 518.733 913.401 518.285 912.612 517.987C911.822 517.688 910.905 517.539 909.86 517.539C908.836 517.539 907.929 517.688 907.14 517.987C906.35 518.285 905.689 518.733 905.156 519.331C904.622 519.907 904.217 520.632 903.94 521.507C903.684 522.381 903.556 523.384 903.556 524.515V525.507C903.556 526.616 903.684 527.608 903.94 528.483C904.217 529.336 904.622 530.061 905.156 530.659C905.689 531.256 906.35 531.704 907.14 532.003C907.929 532.301 908.836 532.451 909.86 532.451ZM931.276 535.971V514.019H940.236C942.518 514.019 944.46 514.413 946.06 515.203C947.66 515.992 948.886 517.197 949.74 518.819C950.614 520.419 951.052 522.477 951.052 524.995C951.052 527.491 950.614 529.549 949.74 531.171C948.886 532.792 947.66 533.997 946.06 534.787C944.46 535.576 942.518 535.971 940.236 535.971H931.276ZM936.044 532.035H940.204C941.164 532.035 942.017 531.896 942.764 531.619C943.51 531.341 944.129 530.936 944.62 530.403C945.11 529.848 945.484 529.165 945.74 528.355C945.996 527.523 946.124 526.563 946.124 525.475V524.515C946.124 523.427 945.996 522.477 945.74 521.667C945.484 520.835 945.11 520.152 944.62 519.619C944.129 519.064 943.51 518.648 942.764 518.371C942.017 518.072 941.164 517.923 940.204 517.923H936.044V532.035ZM952.192 535.971L960.64 514.019H966.528L974.976 535.971H969.824L968.256 531.651H958.688L957.12 535.971H952.192ZM960.064 527.811H966.88L964.928 522.403C964.843 522.168 964.736 521.891 964.608 521.571C964.501 521.229 964.384 520.856 964.256 520.451C964.128 520.045 964 519.651 963.872 519.267C963.765 518.861 963.659 518.499 963.552 518.179H963.36C963.253 518.584 963.115 519.064 962.944 519.619C962.773 520.152 962.603 520.675 962.432 521.187C962.261 521.677 962.123 522.083 962.016 522.403L960.064 527.811ZM986.132 536.355C984.852 536.355 983.636 536.227 982.484 535.971C981.332 535.715 980.308 535.309 979.412 534.755C978.538 534.179 977.844 533.464 977.332 532.611C976.842 531.736 976.596 530.68 976.596 529.443C976.596 529.336 976.596 529.229 976.596 529.123C976.596 528.995 976.607 528.899 976.628 528.835H981.364C981.343 528.899 981.332 528.984 981.332 529.091C981.332 529.197 981.332 529.293 981.332 529.379C981.332 530.061 981.514 530.637 981.876 531.107C982.26 531.576 982.815 531.928 983.54 532.163C984.266 532.397 985.108 532.515 986.068 532.515C986.687 532.515 987.231 532.483 987.7 532.419C988.191 532.333 988.618 532.227 988.98 532.099C989.364 531.949 989.674 531.779 989.908 531.587C990.164 531.395 990.346 531.171 990.452 530.915C990.58 530.659 990.644 530.371 990.644 530.051C990.644 529.475 990.452 529.005 990.068 528.643C989.706 528.28 989.194 527.971 988.532 527.715C987.892 527.459 987.167 527.224 986.356 527.011C985.546 526.797 984.714 526.584 983.86 526.371C983.007 526.136 982.175 525.859 981.364 525.539C980.554 525.197 979.828 524.792 979.188 524.323C978.548 523.853 978.036 523.256 977.652 522.531C977.268 521.805 977.076 520.931 977.076 519.907C977.076 518.819 977.3 517.88 977.748 517.091C978.218 516.301 978.868 515.651 979.7 515.139C980.532 514.627 981.492 514.253 982.58 514.019C983.668 513.763 984.852 513.635 986.132 513.635C987.327 513.635 988.458 513.763 989.524 514.019C990.591 514.253 991.53 514.637 992.34 515.171C993.151 515.704 993.78 516.376 994.228 517.187C994.698 517.997 994.932 518.957 994.932 520.067V520.451H990.292V520.195C990.292 519.619 990.122 519.128 989.78 518.723C989.439 518.317 988.959 517.997 988.34 517.763C987.722 517.528 986.996 517.411 986.164 517.411C985.268 517.411 984.5 517.496 983.86 517.667C983.242 517.837 982.762 518.093 982.42 518.435C982.1 518.755 981.94 519.139 981.94 519.587C981.94 520.099 982.122 520.525 982.484 520.867C982.868 521.187 983.38 521.475 984.02 521.731C984.682 521.965 985.418 522.179 986.228 522.371C987.039 522.563 987.871 522.776 988.724 523.011C989.578 523.245 990.41 523.523 991.22 523.843C992.031 524.163 992.756 524.568 993.396 525.059C994.036 525.528 994.548 526.115 994.932 526.819C995.316 527.523 995.508 528.365 995.508 529.347C995.508 531.032 995.103 532.387 994.292 533.411C993.482 534.435 992.372 535.181 990.964 535.651C989.556 536.12 987.946 536.355 986.132 536.355ZM1012.69 536.355C1011.37 536.355 1010.21 536.163 1009.2 535.779C1008.2 535.373 1007.36 534.733 1006.68 533.859C1006.01 532.963 1005.51 531.789 1005.17 530.339C1004.85 528.888 1004.69 527.107 1004.69 524.995C1004.69 522.861 1004.85 521.08 1005.17 519.651C1005.51 518.2 1006.01 517.027 1006.68 516.131C1007.36 515.235 1008.2 514.595 1009.2 514.211C1010.21 513.827 1011.37 513.635 1012.69 513.635C1014.04 513.635 1015.2 513.827 1016.18 514.211C1017.16 514.595 1017.98 515.235 1018.64 516.131C1019.33 517.027 1019.83 518.2 1020.15 519.651C1020.49 521.08 1020.66 522.861 1020.66 524.995C1020.66 527.107 1020.49 528.888 1020.15 530.339C1019.83 531.789 1019.33 532.963 1018.64 533.859C1017.98 534.733 1017.16 535.373 1016.18 535.779C1015.2 536.163 1014.04 536.355 1012.69 536.355ZM1012.69 532.899C1013.63 532.899 1014.35 532.653 1014.84 532.163C1015.33 531.651 1015.67 530.883 1015.86 529.859C1016.05 528.835 1016.15 527.555 1016.15 526.019V524.035C1016.15 522.477 1016.05 521.187 1015.86 520.163C1015.67 519.117 1015.33 518.339 1014.84 517.827C1014.35 517.315 1013.63 517.059 1012.69 517.059C1011.75 517.059 1011.03 517.315 1010.52 517.827C1010.03 518.339 1009.68 519.107 1009.49 520.131C1009.3 521.133 1009.2 522.413 1009.2 523.971V525.955C1009.2 527.512 1009.3 528.813 1009.49 529.859C1009.68 530.883 1010.03 531.651 1010.52 532.163C1011.03 532.653 1011.75 532.899 1012.69 532.899ZM1031.72 536.355C1030.4 536.355 1029.24 536.163 1028.24 535.779C1027.23 535.373 1026.39 534.733 1025.71 533.859C1025.05 532.963 1024.54 531.789 1024.2 530.339C1023.88 528.888 1023.72 527.107 1023.72 524.995C1023.72 522.861 1023.88 521.08 1024.2 519.651C1024.54 518.2 1025.05 517.027 1025.71 516.131C1026.39 515.235 1027.23 514.595 1028.24 514.211C1029.24 513.827 1030.4 513.635 1031.72 513.635C1033.07 513.635 1034.23 513.827 1035.21 514.211C1036.19 514.595 1037.01 515.235 1037.68 516.131C1038.36 517.027 1038.86 518.2 1039.18 519.651C1039.52 521.08 1039.69 522.861 1039.69 524.995C1039.69 527.107 1039.52 528.888 1039.18 530.339C1038.86 531.789 1038.36 532.963 1037.68 533.859C1037.01 534.733 1036.19 535.373 1035.21 535.779C1034.23 536.163 1033.07 536.355 1031.72 536.355ZM1031.72 532.899C1032.66 532.899 1033.38 532.653 1033.87 532.163C1034.36 531.651 1034.7 530.883 1034.89 529.859C1035.08 528.835 1035.18 527.555 1035.18 526.019V524.035C1035.18 522.477 1035.08 521.187 1034.89 520.163C1034.7 519.117 1034.36 518.339 1033.87 517.827C1033.38 517.315 1032.66 517.059 1031.72 517.059C1030.78 517.059 1030.06 517.315 1029.55 517.827C1029.06 518.339 1028.72 519.107 1028.52 520.131C1028.33 521.133 1028.24 522.413 1028.24 523.971V525.955C1028.24 527.512 1028.33 528.813 1028.52 529.859C1028.72 530.883 1029.06 531.651 1029.55 532.163C1030.06 532.653 1030.78 532.899 1031.72 532.899ZM1043.65 535.971V514.019H1048.42V522.723H1058.15V514.019H1062.91V535.971H1058.15V526.755H1048.42V535.971H1043.65ZM1071.82 535.971L1080.27 514.019H1086.15L1094.6 535.971H1089.45L1087.88 531.651H1078.31L1076.75 535.971H1071.82ZM1079.69 527.811H1086.51L1084.55 522.403C1084.47 522.168 1084.36 521.891 1084.23 521.571C1084.13 521.229 1084.01 520.856 1083.88 520.451C1083.75 520.045 1083.63 519.651 1083.5 519.267C1083.39 518.861 1083.28 518.499 1083.18 518.179H1082.99C1082.88 518.584 1082.74 519.064 1082.57 519.619C1082.4 520.152 1082.23 520.675 1082.06 521.187C1081.89 521.677 1081.75 522.083 1081.64 522.403L1079.69 527.811ZM1085.61 512.323H1081.96L1078.15 508.195L1078.19 508.067H1082.92L1085.61 512.323ZM1105.76 536.355C1104.48 536.355 1103.26 536.227 1102.11 535.971C1100.96 535.715 1099.93 535.309 1099.04 534.755C1098.16 534.179 1097.47 533.464 1096.96 532.611C1096.47 531.736 1096.22 530.68 1096.22 529.443C1096.22 529.336 1096.22 529.229 1096.22 529.123C1096.22 528.995 1096.23 528.899 1096.25 528.835H1100.99C1100.97 528.899 1100.96 528.984 1100.96 529.091C1100.96 529.197 1100.96 529.293 1100.96 529.379C1100.96 530.061 1101.14 530.637 1101.5 531.107C1101.89 531.576 1102.44 531.928 1103.17 532.163C1103.89 532.397 1104.73 532.515 1105.69 532.515C1106.31 532.515 1106.86 532.483 1107.33 532.419C1107.82 532.333 1108.24 532.227 1108.61 532.099C1108.99 531.949 1109.3 531.779 1109.53 531.587C1109.79 531.395 1109.97 531.171 1110.08 530.915C1110.21 530.659 1110.27 530.371 1110.27 530.051C1110.27 529.475 1110.08 529.005 1109.69 528.643C1109.33 528.28 1108.82 527.971 1108.16 527.715C1107.52 527.459 1106.79 527.224 1105.98 527.011C1105.17 526.797 1104.34 526.584 1103.49 526.371C1102.63 526.136 1101.8 525.859 1100.99 525.539C1100.18 525.197 1099.45 524.792 1098.81 524.323C1098.17 523.853 1097.66 523.256 1097.28 522.531C1096.89 521.805 1096.7 520.931 1096.7 519.907C1096.7 518.819 1096.93 517.88 1097.37 517.091C1097.84 516.301 1098.49 515.651 1099.33 515.139C1100.16 514.627 1101.12 514.253 1102.21 514.019C1103.29 513.763 1104.48 513.635 1105.76 513.635C1106.95 513.635 1108.08 513.763 1109.15 514.019C1110.22 514.253 1111.15 514.637 1111.97 515.171C1112.78 515.704 1113.41 516.376 1113.85 517.187C1114.32 517.997 1114.56 518.957 1114.56 520.067V520.451H1109.92V520.195C1109.92 519.619 1109.75 519.128 1109.41 518.723C1109.06 518.317 1108.58 517.997 1107.97 517.763C1107.35 517.528 1106.62 517.411 1105.79 517.411C1104.89 517.411 1104.13 517.496 1103.49 517.667C1102.87 517.837 1102.39 518.093 1102.05 518.435C1101.73 518.755 1101.57 519.139 1101.57 519.587C1101.57 520.099 1101.75 520.525 1102.11 520.867C1102.49 521.187 1103.01 521.475 1103.65 521.731C1104.31 521.965 1105.04 522.179 1105.85 522.371C1106.66 522.563 1107.5 522.776 1108.35 523.011C1109.2 523.245 1110.03 523.523 1110.85 523.843C1111.66 524.163 1112.38 524.568 1113.02 525.059C1113.66 525.528 1114.17 526.115 1114.56 526.819C1114.94 527.523 1115.13 528.365 1115.13 529.347C1115.13 531.032 1114.73 532.387 1113.92 533.411C1113.11 534.435 1112 535.181 1110.59 535.651C1109.18 536.12 1107.57 536.355 1105.76 536.355ZM1132.32 536.355C1130.99 536.355 1129.83 536.163 1128.83 535.779C1127.83 535.373 1126.98 534.733 1126.3 533.859C1125.64 532.963 1125.14 531.789 1124.8 530.339C1124.48 528.888 1124.32 527.107 1124.32 524.995C1124.32 522.861 1124.48 521.08 1124.8 519.651C1125.14 518.2 1125.64 517.027 1126.3 516.131C1126.98 515.235 1127.83 514.595 1128.83 514.211C1129.83 513.827 1130.99 513.635 1132.32 513.635C1133.66 513.635 1134.82 513.827 1135.81 514.211C1136.79 514.595 1137.61 515.235 1138.27 516.131C1138.95 517.027 1139.45 518.2 1139.77 519.651C1140.11 521.08 1140.29 522.861 1140.29 524.995C1140.29 527.107 1140.11 528.888 1139.77 530.339C1139.45 531.789 1138.95 532.963 1138.27 533.859C1137.61 534.733 1136.79 535.373 1135.81 535.779C1134.82 536.163 1133.66 536.355 1132.32 536.355ZM1132.32 532.899C1133.26 532.899 1133.97 532.653 1134.46 532.163C1134.95 531.651 1135.29 530.883 1135.49 529.859C1135.68 528.835 1135.77 527.555 1135.77 526.019V524.035C1135.77 522.477 1135.68 521.187 1135.49 520.163C1135.29 519.117 1134.95 518.339 1134.46 517.827C1133.97 517.315 1133.26 517.059 1132.32 517.059C1131.38 517.059 1130.65 517.315 1130.14 517.827C1129.65 518.339 1129.31 519.107 1129.12 520.131C1128.93 521.133 1128.83 522.413 1128.83 523.971V525.955C1128.83 527.512 1128.93 528.813 1129.12 529.859C1129.31 530.883 1129.65 531.651 1130.14 532.163C1130.65 532.653 1131.38 532.899 1132.32 532.899ZM1151.35 536.355C1150.03 536.355 1148.86 536.163 1147.86 535.779C1146.86 535.373 1146.02 534.733 1145.33 533.859C1144.67 532.963 1144.17 531.789 1143.83 530.339C1143.51 528.888 1143.35 527.107 1143.35 524.995C1143.35 522.861 1143.51 521.08 1143.83 519.651C1144.17 518.2 1144.67 517.027 1145.33 516.131C1146.02 515.235 1146.86 514.595 1147.86 514.211C1148.86 513.827 1150.03 513.635 1151.35 513.635C1152.69 513.635 1153.86 513.827 1154.84 514.211C1155.82 514.595 1156.64 515.235 1157.3 516.131C1157.98 517.027 1158.48 518.2 1158.8 519.651C1159.15 521.08 1159.32 522.861 1159.32 524.995C1159.32 527.107 1159.15 528.888 1158.8 530.339C1158.48 531.789 1157.98 532.963 1157.3 533.859C1156.64 534.733 1155.82 535.373 1154.84 535.779C1153.86 536.163 1152.69 536.355 1151.35 536.355ZM1151.35 532.899C1152.29 532.899 1153 532.653 1153.49 532.163C1153.98 531.651 1154.32 530.883 1154.52 529.859C1154.71 528.835 1154.8 527.555 1154.8 526.019V524.035C1154.8 522.477 1154.71 521.187 1154.52 520.163C1154.32 519.117 1153.98 518.339 1153.49 517.827C1153 517.315 1152.29 517.059 1151.35 517.059C1150.41 517.059 1149.68 517.315 1149.17 517.827C1148.68 518.339 1148.34 519.107 1148.15 520.131C1147.96 521.133 1147.86 522.413 1147.86 523.971V525.955C1147.86 527.512 1147.96 528.813 1148.15 529.859C1148.34 530.883 1148.68 531.651 1149.17 532.163C1149.68 532.653 1150.41 532.899 1151.35 532.899ZM1163.28 535.971V514.019H1168.04V522.723H1177.77V514.019H1182.54V535.971H1177.77V526.755H1168.04V535.971H1163.28Z" fill="white"/>
</g>
<defs>
<clipPath id="clip0_553_115">
<rect width="1676" height="710" rx="24" fill="white"/>
</clipPath>
</defs>
</svg>
