<svg width="141" height="116" viewBox="0 0 141 116" fill="none" xmlns="http://www.w3.org/2000/svg">
<path d="M103.401 0C121.631 0.000162937 136.409 11.918 136.409 26.6191C136.409 34.5207 132.138 41.6162 125.358 46.4912C134.637 52.2042 140.667 61.4431 140.667 71.8701C140.667 89.2174 123.982 103.281 103.4 103.281C91.3151 103.281 80.5748 98.4306 73.7656 90.915C69.8718 104.813 55.0617 115.156 37.3838 115.156C16.7376 115.156 7.15502e-05 101.048 0 83.6465C0.000180111 73.1861 6.04917 63.9174 15.3584 58.1865C8.5579 53.2961 4.27445 46.1781 4.27441 38.252C4.27462 23.5049 19.0984 11.5501 37.3848 11.5498C55.6714 11.5498 70.4959 23.5047 70.4961 38.252C70.4961 46.1788 66.2117 53.2971 59.4102 58.1875C62.3402 59.9914 64.9465 62.1465 67.1436 64.5781C69.2256 57.1983 74.3976 50.8278 81.4434 46.4902C74.6644 41.6152 70.3937 34.5202 70.3936 26.6191C70.3936 11.9179 85.1719 7.27432e-05 103.401 0ZM36.3184 67.0908C28.6499 67.091 22.4336 72.5903 22.4336 79.374C22.4337 86.1576 28.65 91.657 36.3184 91.6572C43.9869 91.6572 50.204 86.1577 50.2041 79.374C50.2041 72.5902 43.987 67.0908 36.3184 67.0908ZM102.336 55.3672C94.6914 55.3672 88.4942 60.8488 88.4941 67.6113C88.4942 74.3739 94.6913 79.8564 102.336 79.8564C109.98 79.8562 116.178 74.3737 116.178 67.6113C116.178 60.849 109.98 55.3674 102.336 55.3672ZM36.3164 31.8438C30.4179 31.844 25.636 36.1474 25.6357 41.4561C25.6358 46.7649 30.4178 51.069 36.3164 51.0693C42.2153 51.0693 46.998 46.7651 46.998 41.4561C46.9978 36.1472 42.2152 31.8438 36.3164 31.8438ZM102.335 20.2305C96.4547 20.2306 91.6877 24.5203 91.6875 29.8125C91.6876 35.1049 96.4546 39.3954 102.335 39.3955C108.215 39.3953 112.982 35.1048 112.982 29.8125C112.982 24.5203 108.215 20.2306 102.335 20.2305Z" fill="black"/>
</svg>
