<svg width="421" height="435" viewBox="0 0 421 435" fill="none" xmlns="http://www.w3.org/2000/svg">
<path d="M280.435 390.854V402.19H273.427V371.073H296.31V376.852H280.435V385.076H294.45V390.854H280.435Z" fill="white"/>
<path d="M301.054 371.073V402.19H307.629V383.916L316.496 398.9H319.654L328.569 383.513L328.608 402.19H335.183L335.096 371.073H329.343L318.192 390.394L306.85 371.073H301.054Z" fill="white"/>
<path fill-rule="evenodd" clip-rule="evenodd" d="M408.243 120.886C408.25 120.48 408.253 120.074 408.253 119.667C408.253 95.595 395.718 73.9497 375.763 58.9695C373.5 26.0135 346.768 0 314.123 0H104.021C69.8928 0 42.2264 28.4316 42.2264 63.5037V97.034C24.05 111.923 12.7872 132.596 12.7872 155.449C12.7872 155.853 12.7907 156.257 12.7977 156.661C12.7907 157.064 12.7872 157.468 12.7872 157.873C12.7872 181.552 24.8785 202.89 44.2233 217.878C17.3497 235.579 0 263.568 0 295.067C0 295.472 0.00286273 295.876 0.0085716 296.28C0.00286273 296.683 0 297.087 0 297.492C0 328.214 16.5044 355.597 42.2522 373.352C43.2076 407.566 70.4968 435 104.021 435H314.123C348.251 435 375.918 406.568 375.918 371.496V338.869C403.274 321.264 421 293.061 421 261.273C421 260.871 420.997 260.47 420.991 260.07C420.997 259.663 421 259.256 421 258.849C421 227.45 403.707 199.55 376.92 181.905C396.202 166.963 408.253 145.693 408.253 122.091C408.253 121.688 408.25 121.287 408.243 120.886ZM314.123 11.6423H104.021C76.1496 11.6423 53.5554 34.8614 53.5554 63.5037V89.0474C69.9204 79.1565 90.0808 73.32 111.886 73.32C166.617 73.32 210.985 110.09 210.985 155.449C210.985 155.853 210.982 156.257 210.975 156.661C210.982 157.064 210.985 157.468 210.985 157.873C210.985 181.552 198.894 202.89 179.549 217.879C187.611 223.189 194.817 229.426 200.954 236.406C207.014 214.34 221.813 195.208 242.008 181.905C222.727 166.963 210.675 145.693 210.675 122.091C210.675 121.684 210.679 121.277 210.686 120.872C210.679 120.471 210.676 120.069 210.676 119.667C210.676 74.4502 254.905 37.795 309.464 37.795C329.232 37.795 347.643 42.6066 363.086 50.8938C357.605 28.3455 337.762 11.6423 314.123 11.6423ZM220.775 319.865C241.155 342.973 273.3 357.881 309.464 357.881C329.514 357.881 348.329 353.299 364.589 345.277V371.496C364.589 400.139 341.994 423.358 314.123 423.358H104.021C79.1774 423.358 58.5267 404.909 54.3331 380.616C71.1486 389.37 90.8386 394.403 111.886 394.403C164.788 394.403 209.115 362.602 220.775 319.865ZM274.436 130.7C275.125 114.986 289.117 102.441 306.277 102.441C323.439 102.441 337.432 114.989 338.118 130.706C337.429 146.421 323.437 158.965 306.277 158.965C289.115 158.965 275.122 146.418 274.436 130.7ZM347.684 246.965C346.978 267.202 328.71 283.41 306.278 283.41C283.843 283.41 265.573 267.198 264.871 246.957C265.577 226.72 283.845 210.512 306.278 210.512C328.713 210.512 346.982 226.724 347.684 246.965ZM108.689 194.87C125.905 194.87 139.943 182.283 140.63 166.516C139.943 150.749 125.905 138.162 108.689 138.162C91.4727 138.162 77.4352 150.749 76.7478 166.516C77.4352 182.283 91.4727 194.87 108.689 194.87ZM108.689 246.572C86.184 246.572 67.8568 262.835 67.1529 283.139C67.8568 303.443 86.184 319.706 108.689 319.706C131.195 319.706 149.522 303.443 150.226 283.139C149.522 262.835 131.195 246.572 108.689 246.572Z" fill="white"/>
</svg>
