<svg width="432" height="435" viewBox="0 0 432 435" fill="none" xmlns="http://www.w3.org/2000/svg">
<path d="M44.3525 73.3529C44.3525 32.8412 77.1938 0 117.705 0H313.882C354.394 0 387.235 32.8412 387.235 73.3529V319H44.3525V73.3529Z" fill="#038CE4"/>
<path d="M44.3525 319H387.235V361.647C387.235 402.159 354.394 435 313.882 435H117.706C77.1938 435 44.3525 402.159 44.3525 361.647V319Z" fill="#E83C25"/>
<path d="M316.884 37.5508C373.108 37.5511 418.686 75.1055 418.687 121.431C418.687 145.156 406.729 166.58 387.512 181.838C414.344 199.947 431.591 228.135 431.591 259.799C431.591 314.439 380.234 358.734 316.883 358.734C279.433 358.734 246.176 343.254 225.241 319.309C211.797 361.065 167.403 391.713 114.708 391.713C51.3566 391.713 8.57447e-05 347.418 0 292.777C0.000152369 261.114 17.2466 232.924 44.0791 214.815C24.8633 199.558 12.9082 178.135 12.9082 154.41C12.9084 108.085 58.487 70.5306 114.711 70.5303C170.935 70.5303 216.514 108.085 216.515 154.41C216.515 178.136 204.558 199.56 185.34 214.818C193.24 220.15 200.307 226.357 206.35 233.268C212.997 212.621 227.209 194.69 246.253 181.837C227.036 166.579 215.08 145.156 215.08 121.431C215.081 75.1054 260.66 37.5509 316.884 37.5508ZM114.707 244.025C91.7424 244.026 73.1262 260.075 73.126 279.872C73.1262 299.669 91.7424 315.718 114.707 315.718C137.672 315.718 156.289 299.669 156.289 279.872C156.289 260.075 137.672 244.025 114.707 244.025ZM316.883 211.048C293.918 211.048 275.302 227.097 275.302 246.895C275.302 266.691 293.918 282.74 316.883 282.74C339.847 282.74 358.465 266.692 358.465 246.895C358.465 227.097 339.848 211.048 316.883 211.048ZM114.708 135.053C96.4949 135.053 81.7295 147.571 81.7295 163.013C81.7295 178.454 96.4949 190.972 114.708 190.973C132.922 190.973 147.687 178.455 147.687 163.013C147.686 147.571 132.922 135.053 114.708 135.053ZM316.881 102.074C298.668 102.074 283.903 114.593 283.902 130.034C283.902 145.476 298.667 157.994 316.881 157.994C335.094 157.994 349.859 145.476 349.859 130.034C349.859 114.593 335.094 102.075 316.881 102.074Z" fill="#FEC508"/>
<path d="M278.398 387.991V399.177H271.236V368.471H294.623V374.173H278.398V382.288H292.722V387.991H278.398Z" fill="white"/>
<path d="M299.472 368.471V399.177H306.192V381.144L315.255 395.931H318.482L327.594 380.747L327.634 399.177H334.354L334.265 368.471H328.385L316.988 387.537L305.396 368.471H299.472Z" fill="white"/>
</svg>
